<svg width="818" height="818" viewBox="0 0 818 818" fill="none" xmlns="http://www.w3.org/2000/svg">
<path d="M118.384 548.094C119.662 549.741 121.386 550.838 123.253 551.348C124.847 551.784 126.545 551.791 128.161 551.348C129.3 551.036 130.398 550.499 131.389 549.73C135.431 546.589 136.169 540.762 133.025 536.716C129.888 532.677 124.054 531.942 120.015 535.083C115.969 538.224 115.246 544.048 118.384 548.094Z" fill="#8E8E8E"/>
<path d="M118.384 548.094C119.662 549.741 121.386 550.838 123.253 551.348C124.847 551.784 126.545 551.791 128.161 551.348C129.3 551.036 130.398 550.499 131.389 549.73C135.431 546.589 136.169 540.762 133.025 536.716C129.888 532.677 124.054 531.942 120.015 535.083C115.969 538.224 115.246 544.048 118.384 548.094Z" fill="url(#paint0_angular_27_160)" style="mix-blend-mode:difference"/>
<path d="M118.384 548.094C119.662 549.741 121.386 550.838 123.253 551.348C124.847 551.784 126.545 551.791 128.161 551.348C129.3 551.036 130.398 550.499 131.389 549.73C135.431 546.589 136.169 540.762 133.025 536.716C129.888 532.677 124.054 531.942 120.015 535.083C115.969 538.224 115.246 544.048 118.384 548.094Z" fill="url(#paint1_angular_27_160)" style="mix-blend-mode:screen"/>
<path d="M118.222 421.832C119.499 423.477 121.222 424.574 123.089 425.084C124.683 425.52 126.381 425.528 127.997 425.085C129.137 424.772 130.235 424.235 131.226 423.465C135.269 420.324 136.007 414.5 132.862 410.454C129.724 406.411 123.89 405.68 119.854 408.821C115.807 411.962 115.084 417.786 118.222 421.832Z" fill="#8E8E8E"/>
<path d="M118.222 421.832C119.499 423.477 121.222 424.574 123.089 425.084C124.683 425.52 126.381 425.528 127.997 425.085C129.137 424.772 130.235 424.235 131.226 423.465C135.269 420.324 136.007 414.5 132.862 410.454C129.724 406.411 123.89 405.68 119.854 408.821C115.807 411.962 115.084 417.786 118.222 421.832Z" fill="url(#paint2_angular_27_160)" style="mix-blend-mode:difference"/>
<path d="M118.222 421.832C119.499 423.477 121.222 424.574 123.089 425.084C124.683 425.52 126.381 425.528 127.997 425.085C129.137 424.772 130.235 424.235 131.226 423.465C135.269 420.324 136.007 414.5 132.862 410.454C129.724 406.411 123.89 405.68 119.854 408.821C115.807 411.962 115.084 417.786 118.222 421.832Z" fill="url(#paint3_angular_27_160)" style="mix-blend-mode:screen"/>
<path d="M117.847 295.57C119.125 297.215 120.849 298.313 122.717 298.823C124.311 299.258 126.009 299.266 127.625 298.823C128.764 298.51 129.861 297.973 130.852 297.204C134.893 294.063 135.632 288.237 132.488 284.191C129.352 280.15 123.518 279.417 119.478 282.559C115.434 285.7 114.709 291.524 117.847 295.57Z" fill="#8E8E8E"/>
<path d="M117.847 295.57C119.125 297.215 120.849 298.313 122.717 298.823C124.311 299.258 126.009 299.266 127.625 298.823C128.764 298.51 129.861 297.973 130.852 297.204C134.893 294.063 135.632 288.237 132.488 284.191C129.352 280.15 123.518 279.417 119.478 282.559C115.434 285.7 114.709 291.524 117.847 295.57Z" fill="url(#paint4_angular_27_160)" style="mix-blend-mode:difference"/>
<path d="M117.847 295.57C119.125 297.215 120.849 298.313 122.717 298.823C124.311 299.258 126.009 299.266 127.625 298.823C128.764 298.51 129.861 297.973 130.852 297.204C134.893 294.063 135.632 288.237 132.488 284.191C129.352 280.15 123.518 279.417 119.478 282.559C115.434 285.7 114.709 291.524 117.847 295.57Z" fill="url(#paint5_angular_27_160)" style="mix-blend-mode:screen"/>
<path d="M365.342 764.885C367.385 764.48 369.137 763.431 370.429 761.991C371.532 760.762 372.3 759.248 372.628 757.606C372.86 756.446 372.872 755.222 372.627 753.989C371.63 748.967 366.749 745.7 361.727 746.701C356.711 747.694 353.442 752.581 354.44 757.6C355.438 762.623 360.321 765.878 365.342 764.885Z" fill="#8E8E8E"/>
<path d="M365.342 764.885C367.385 764.48 369.137 763.431 370.429 761.991C371.532 760.762 372.3 759.248 372.628 757.606C372.86 756.446 372.872 755.222 372.627 753.989C371.63 748.967 366.749 745.7 361.727 746.701C356.711 747.694 353.442 752.581 354.44 757.6C355.438 762.623 360.321 765.878 365.342 764.885Z" fill="url(#paint6_angular_27_160)" style="mix-blend-mode:difference"/>
<path d="M365.342 764.885C367.385 764.48 369.137 763.431 370.429 761.991C371.532 760.762 372.3 759.248 372.628 757.606C372.86 756.446 372.872 755.222 372.627 753.989C371.63 748.967 366.749 745.7 361.727 746.701C356.711 747.694 353.442 752.581 354.44 757.6C355.438 762.623 360.321 765.878 365.342 764.885Z" fill="url(#paint7_angular_27_160)" style="mix-blend-mode:screen"/>
<path d="M240.037 703.965C242.079 703.561 243.831 702.513 245.124 701.073C246.227 699.843 246.995 698.329 247.323 696.686C247.555 695.527 247.567 694.304 247.322 693.073C246.323 688.049 241.446 684.78 236.42 685.781C231.404 686.774 228.135 691.661 229.133 696.68C230.131 701.703 235.015 704.958 240.037 703.965Z" fill="#8E8E8E"/>
<path d="M240.037 703.965C242.079 703.561 243.831 702.513 245.124 701.073C246.227 699.843 246.995 698.329 247.323 696.686C247.555 695.527 247.567 694.304 247.322 693.073C246.323 688.049 241.446 684.78 236.42 685.781C231.404 686.774 228.135 691.661 229.133 696.68C230.131 701.703 235.015 704.958 240.037 703.965Z" fill="url(#paint8_angular_27_160)" style="mix-blend-mode:difference"/>
<path d="M240.037 703.965C242.079 703.561 243.831 702.513 245.124 701.073C246.227 699.843 246.995 698.329 247.323 696.686C247.555 695.527 247.567 694.304 247.322 693.073C246.323 688.049 241.446 684.78 236.42 685.781C231.404 686.774 228.135 691.661 229.133 696.68C230.131 701.703 235.015 704.958 240.037 703.965Z" fill="url(#paint9_angular_27_160)" style="mix-blend-mode:screen"/>
<path d="M126.979 647.75C129.021 647.344 130.773 646.294 132.065 644.855C133.169 643.625 133.937 642.111 134.265 640.468C134.497 639.308 134.509 638.084 134.264 636.851C133.268 631.832 128.388 628.562 123.365 629.563C118.348 630.553 115.079 635.446 116.077 640.462C117.075 645.485 121.957 648.74 126.979 647.75Z" fill="#8E8E8E"/>
<path d="M126.979 647.75C129.021 647.344 130.773 646.294 132.065 644.855C133.169 643.625 133.937 642.111 134.265 640.468C134.497 639.308 134.509 638.084 134.264 636.851C133.268 631.832 128.388 628.562 123.365 629.563C118.348 630.553 115.079 635.446 116.077 640.462C117.075 645.485 121.957 648.74 126.979 647.75Z" fill="url(#paint10_angular_27_160)" style="mix-blend-mode:difference"/>
<path d="M126.979 647.75C129.021 647.344 130.773 646.294 132.065 644.855C133.169 643.625 133.937 642.111 134.265 640.468C134.497 639.308 134.509 638.084 134.264 636.851C133.268 631.832 128.388 628.562 123.365 629.563C118.348 630.553 115.079 635.446 116.077 640.462C117.075 645.485 121.957 648.74 126.979 647.75Z" fill="url(#paint11_angular_27_160)" style="mix-blend-mode:screen"/>
<path d="M183.767 488.557C182.489 490.203 180.766 491.301 178.899 491.811C177.305 492.246 175.606 492.254 173.991 491.811C172.852 491.499 171.754 490.962 170.763 490.193C166.722 487.052 165.982 481.225 169.127 477.179C172.263 473.139 178.097 472.405 182.136 475.546C186.182 478.687 186.905 484.515 183.767 488.557Z" fill="#8E8E8E"/>
<path d="M183.767 488.557C182.489 490.203 180.766 491.301 178.899 491.811C177.305 492.246 175.606 492.254 173.991 491.811C172.852 491.499 171.754 490.962 170.763 490.193C166.722 487.052 165.982 481.225 169.127 477.179C172.263 473.139 178.097 472.405 182.136 475.546C186.182 478.687 186.905 484.515 183.767 488.557Z" fill="url(#paint12_angular_27_160)" style="mix-blend-mode:difference"/>
<path d="M183.767 488.557C182.489 490.203 180.766 491.301 178.899 491.811C177.305 492.246 175.606 492.254 173.991 491.811C172.852 491.499 171.754 490.962 170.763 490.193C166.722 487.052 165.982 481.225 169.127 477.179C172.263 473.139 178.097 472.405 182.136 475.546C186.182 478.687 186.905 484.515 183.767 488.557Z" fill="url(#paint13_angular_27_160)" style="mix-blend-mode:screen"/>
<path d="M184.137 362.296C182.859 363.94 181.137 365.037 179.271 365.548C177.677 365.984 175.979 365.992 174.363 365.549C173.224 365.236 172.125 364.699 171.134 363.929C167.093 360.788 166.355 354.963 169.498 350.918C172.634 346.875 178.468 346.144 182.507 349.285C186.552 352.426 187.275 358.25 184.137 362.296Z" fill="#8E8E8E"/>
<path d="M184.137 362.296C182.859 363.94 181.137 365.037 179.271 365.548C177.677 365.984 175.979 365.992 174.363 365.549C173.224 365.236 172.125 364.699 171.134 363.929C167.093 360.788 166.355 354.963 169.498 350.918C172.634 346.875 178.468 346.144 182.507 349.285C186.552 352.426 187.275 358.25 184.137 362.296Z" fill="url(#paint14_angular_27_160)" style="mix-blend-mode:difference"/>
<path d="M184.137 362.296C182.859 363.94 181.137 365.037 179.271 365.548C177.677 365.984 175.979 365.992 174.363 365.549C173.224 365.236 172.125 364.699 171.134 363.929C167.093 360.788 166.355 354.963 169.498 350.918C172.634 346.875 178.468 346.144 182.507 349.285C186.552 352.426 187.275 358.25 184.137 362.296Z" fill="url(#paint15_angular_27_160)" style="mix-blend-mode:screen"/>
<path d="M322.428 671.294C323.33 673.17 323.544 675.201 323.168 677.098C322.848 678.719 322.097 680.244 320.98 681.493C320.192 682.373 319.223 683.116 318.092 683.661C313.479 685.877 307.938 683.94 305.716 679.324C303.496 674.717 305.441 669.166 310.056 666.952C314.67 664.73 320.208 666.681 322.428 671.294Z" fill="#8E8E8E"/>
<path d="M322.428 671.294C323.33 673.17 323.544 675.201 323.168 677.098C322.848 678.719 322.097 680.244 320.98 681.493C320.192 682.373 319.223 683.116 318.092 683.661C313.479 685.877 307.938 683.94 305.716 679.324C303.496 674.717 305.441 669.166 310.056 666.952C314.67 664.73 320.208 666.681 322.428 671.294Z" fill="url(#paint16_angular_27_160)" style="mix-blend-mode:difference"/>
<path d="M322.428 671.294C323.33 673.17 323.544 675.201 323.168 677.098C322.848 678.719 322.097 680.244 320.98 681.493C320.192 682.373 319.223 683.116 318.092 683.661C313.479 685.877 307.938 683.94 305.716 679.324C303.496 674.717 305.441 669.166 310.056 666.952C314.67 664.73 320.208 666.681 322.428 671.294Z" fill="url(#paint17_angular_27_160)" style="mix-blend-mode:screen"/>
<path d="M209.579 614.664C210.481 616.539 210.694 618.569 210.319 620.466C209.998 622.087 209.248 623.612 208.131 624.861C207.344 625.742 206.374 626.486 205.244 627.03C200.629 629.25 195.086 627.31 192.868 622.693C190.649 618.086 192.593 612.535 197.206 610.322C201.818 608.1 207.358 610.05 209.579 614.664Z" fill="#8E8E8E"/>
<path d="M209.579 614.664C210.481 616.539 210.694 618.569 210.319 620.466C209.998 622.087 209.248 623.612 208.131 624.861C207.344 625.742 206.374 626.486 205.244 627.03C200.629 629.25 195.086 627.31 192.868 622.693C190.649 618.086 192.593 612.535 197.206 610.322C201.818 608.1 207.358 610.05 209.579 614.664Z" fill="url(#paint18_angular_27_160)" style="mix-blend-mode:difference"/>
<path d="M209.579 614.664C210.481 616.539 210.694 618.569 210.319 620.466C209.998 622.087 209.248 623.612 208.131 624.861C207.344 625.742 206.374 626.486 205.244 627.03C200.629 629.25 195.086 627.31 192.868 622.693C190.649 618.086 192.593 612.535 197.206 610.322C201.818 608.1 207.358 610.05 209.579 614.664Z" fill="url(#paint19_angular_27_160)" style="mix-blend-mode:screen"/>
<path d="M157.86 328.931C156.668 330.466 155.089 331.524 153.367 332.074C151.788 332.577 150.089 332.654 148.459 332.28C147.186 331.988 145.954 331.421 144.855 330.567C140.814 327.426 140.075 321.602 143.219 317.553C146.357 313.513 152.19 312.779 156.229 315.92C160.273 319.064 160.998 324.889 157.86 328.931Z" fill="#8E8E8E"/>
<path d="M157.86 328.931C156.668 330.466 155.089 331.524 153.367 332.074C151.788 332.577 150.089 332.654 148.459 332.28C147.186 331.988 145.954 331.421 144.855 330.567C140.814 327.426 140.075 321.602 143.219 317.553C146.357 313.513 152.19 312.779 156.229 315.92C160.273 319.064 160.998 324.889 157.86 328.931Z" fill="url(#paint20_angular_27_160)" style="mix-blend-mode:difference"/>
<path d="M157.86 328.931C156.668 330.466 155.089 331.524 153.367 332.074C151.788 332.577 150.089 332.654 148.459 332.28C147.186 331.988 145.954 331.421 144.855 330.567C140.814 327.426 140.075 321.602 143.219 317.553C146.357 313.513 152.19 312.779 156.229 315.92C160.273 319.064 160.998 324.889 157.86 328.931Z" fill="url(#paint21_angular_27_160)" style="mix-blend-mode:screen"/>
<path d="M728.077 548.241C726.8 549.886 725.077 550.983 723.211 551.493C721.617 551.929 719.918 551.937 718.303 551.494C717.163 551.182 716.064 550.644 715.073 549.874C711.033 546.733 710.292 540.909 713.437 536.863C716.574 532.82 722.408 532.089 726.448 535.23C730.49 538.371 731.215 544.195 728.077 548.241Z" fill="#8E8E8E"/>
<path d="M728.077 548.241C726.8 549.886 725.077 550.983 723.211 551.493C721.617 551.929 719.918 551.937 718.303 551.494C717.163 551.182 716.064 550.644 715.073 549.874C711.033 546.733 710.292 540.909 713.437 536.863C716.574 532.82 722.408 532.089 726.448 535.23C730.49 538.371 731.215 544.195 728.077 548.241Z" fill="url(#paint22_angular_27_160)" style="mix-blend-mode:difference"/>
<path d="M728.077 548.241C726.8 549.886 725.077 550.983 723.211 551.493C721.617 551.929 719.918 551.937 718.303 551.494C717.163 551.182 716.064 550.644 715.073 549.874C711.033 546.733 710.292 540.909 713.437 536.863C716.574 532.82 722.408 532.089 726.448 535.23C730.49 538.371 731.215 544.195 728.077 548.241Z" fill="url(#paint23_angular_27_160)" style="mix-blend-mode:screen"/>
<path d="M728.239 421.978C726.962 423.624 725.239 424.72 723.373 425.231C721.779 425.667 720.081 425.676 718.465 425.233C717.325 424.921 716.226 424.384 715.235 423.614C711.192 420.473 710.454 414.649 713.599 410.603C716.737 406.56 722.567 405.826 726.607 408.967C730.652 412.111 731.377 417.932 728.239 421.978Z" fill="#8E8E8E"/>
<path d="M728.239 421.978C726.962 423.624 725.239 424.72 723.373 425.231C721.779 425.667 720.081 425.676 718.465 425.233C717.325 424.921 716.226 424.384 715.235 423.614C711.192 420.473 710.454 414.649 713.599 410.603C716.737 406.56 722.567 405.826 726.607 408.967C730.652 412.111 731.377 417.932 728.239 421.978Z" fill="url(#paint24_angular_27_160)" style="mix-blend-mode:difference"/>
<path d="M728.239 421.978C726.962 423.624 725.239 424.72 723.373 425.231C721.779 425.667 720.081 425.676 718.465 425.233C717.325 424.921 716.226 424.384 715.235 423.614C711.192 420.473 710.454 414.649 713.599 410.603C716.737 406.56 722.567 405.826 726.607 408.967C730.652 412.111 731.377 417.932 728.239 421.978Z" fill="url(#paint25_angular_27_160)" style="mix-blend-mode:screen"/>
<path d="M728.613 295.716C727.336 297.361 725.613 298.458 723.747 298.968C722.153 299.404 720.455 299.412 718.839 298.969C717.699 298.657 716.601 298.12 715.609 297.35C711.566 294.209 710.828 288.383 713.973 284.337C717.107 280.297 722.941 279.564 726.981 282.703C731.026 285.846 731.751 291.67 728.613 295.716Z" fill="#8E8E8E"/>
<path d="M728.613 295.716C727.336 297.361 725.613 298.458 723.747 298.968C722.153 299.404 720.455 299.412 718.839 298.969C717.699 298.657 716.601 298.12 715.609 297.35C711.566 294.209 710.828 288.383 713.973 284.337C717.107 280.297 722.941 279.564 726.981 282.703C731.026 285.846 731.751 291.67 728.613 295.716Z" fill="url(#paint26_angular_27_160)" style="mix-blend-mode:difference"/>
<path d="M728.613 295.716C727.336 297.361 725.613 298.458 723.747 298.968C722.153 299.404 720.455 299.412 718.839 298.969C717.699 298.657 716.601 298.12 715.609 297.35C711.566 294.209 710.828 288.383 713.973 284.337C717.107 280.297 722.941 279.564 726.981 282.703C731.026 285.846 731.751 291.67 728.613 295.716Z" fill="url(#paint27_angular_27_160)" style="mix-blend-mode:screen"/>
<path d="M481.117 765.029C479.075 764.624 477.324 763.577 476.032 762.138C474.928 760.909 474.16 759.394 473.832 757.751C473.6 756.592 473.588 755.368 473.832 754.136C474.831 749.115 479.708 745.847 484.734 746.845C489.75 747.838 493.019 752.726 492.019 757.744C491.023 762.769 486.139 766.025 481.117 765.029Z" fill="#8E8E8E"/>
<path d="M481.117 765.029C479.075 764.624 477.324 763.577 476.032 762.138C474.928 760.909 474.16 759.394 473.832 757.751C473.6 756.592 473.588 755.368 473.832 754.136C474.831 749.115 479.708 745.847 484.734 746.845C489.75 747.838 493.019 752.726 492.019 757.744C491.023 762.769 486.139 766.025 481.117 765.029Z" fill="url(#paint28_angular_27_160)" style="mix-blend-mode:difference"/>
<path d="M481.117 765.029C479.075 764.624 477.324 763.577 476.032 762.138C474.928 760.909 474.16 759.394 473.832 757.751C473.6 756.592 473.588 755.368 473.832 754.136C474.831 749.115 479.708 745.847 484.734 746.845C489.75 747.838 493.019 752.726 492.019 757.744C491.023 762.769 486.139 766.025 481.117 765.029Z" fill="url(#paint29_angular_27_160)" style="mix-blend-mode:screen"/>
<path d="M606.424 704.111C604.382 703.706 602.631 702.659 601.338 701.22C600.235 699.991 599.466 698.477 599.138 696.834C598.907 695.675 598.894 694.451 599.139 693.218C600.138 688.197 605.015 684.929 610.041 685.93C615.057 686.92 618.326 691.808 617.326 696.829C616.33 701.851 611.447 705.107 606.424 704.111Z" fill="#8E8E8E"/>
<path d="M606.424 704.111C604.382 703.706 602.631 702.659 601.338 701.22C600.235 699.991 599.466 698.477 599.138 696.834C598.907 695.675 598.894 694.451 599.139 693.218C600.138 688.197 605.015 684.929 610.041 685.93C615.057 686.92 618.326 691.808 617.326 696.829C616.33 701.851 611.447 705.107 606.424 704.111Z" fill="url(#paint30_angular_27_160)" style="mix-blend-mode:difference"/>
<path d="M606.424 704.111C604.382 703.706 602.631 702.659 601.338 701.22C600.235 699.991 599.466 698.477 599.138 696.834C598.907 695.675 598.894 694.451 599.139 693.218C600.138 688.197 605.015 684.929 610.041 685.93C615.057 686.92 618.326 691.808 617.326 696.829C616.33 701.851 611.447 705.107 606.424 704.111Z" fill="url(#paint31_angular_27_160)" style="mix-blend-mode:screen"/>
<path d="M719.478 647.896C717.436 647.49 715.685 646.442 714.393 645.003C713.29 643.773 712.522 642.259 712.194 640.616C711.963 639.457 711.951 638.233 712.196 637C713.192 631.979 718.073 628.711 723.095 629.709C728.111 630.702 731.38 635.592 730.384 640.608C729.387 645.633 724.504 648.889 719.478 647.896Z" fill="#8E8E8E"/>
<path d="M719.478 647.896C717.436 647.49 715.685 646.442 714.393 645.003C713.29 643.773 712.522 642.259 712.194 640.616C711.963 639.457 711.951 638.233 712.196 637C713.192 631.979 718.073 628.711 723.095 629.709C728.111 630.702 731.38 635.592 730.384 640.608C729.387 645.633 724.504 648.889 719.478 647.896Z" fill="url(#paint32_angular_27_160)" style="mix-blend-mode:difference"/>
<path d="M719.478 647.896C717.436 647.49 715.685 646.442 714.393 645.003C713.29 643.773 712.522 642.259 712.194 640.616C711.963 639.457 711.951 638.233 712.196 637C713.192 631.979 718.073 628.711 723.095 629.709C728.111 630.702 731.38 635.592 730.384 640.608C729.387 645.633 724.504 648.889 719.478 647.896Z" fill="url(#paint33_angular_27_160)" style="mix-blend-mode:screen"/>
<path d="M662.694 488.705C663.971 490.35 665.693 491.446 667.56 491.956C669.153 492.392 670.852 492.4 672.468 491.957C673.608 491.644 674.707 491.107 675.698 490.337C679.741 487.196 680.479 481.372 677.334 477.326C674.2 473.284 668.366 472.552 664.327 475.694C660.281 478.835 659.556 484.659 662.694 488.705Z" fill="#8E8E8E"/>
<path d="M662.694 488.705C663.971 490.35 665.693 491.446 667.56 491.956C669.153 492.392 670.852 492.4 672.468 491.957C673.608 491.644 674.707 491.107 675.698 490.337C679.741 487.196 680.479 481.372 677.334 477.326C674.2 473.284 668.366 472.552 664.327 475.694C660.281 478.835 659.556 484.659 662.694 488.705Z" fill="url(#paint34_angular_27_160)" style="mix-blend-mode:difference"/>
<path d="M662.694 488.705C663.971 490.35 665.693 491.446 667.56 491.956C669.153 492.392 670.852 492.4 672.468 491.957C673.608 491.644 674.707 491.107 675.698 490.337C679.741 487.196 680.479 481.372 677.334 477.326C674.2 473.284 668.366 472.552 664.327 475.694C660.281 478.835 659.556 484.659 662.694 488.705Z" fill="url(#paint35_angular_27_160)" style="mix-blend-mode:screen"/>
<path d="M662.321 362.442C663.599 364.087 665.321 365.183 667.187 365.694C668.78 366.131 670.479 366.14 672.095 365.697C673.235 365.385 674.334 364.848 675.325 364.078C679.368 360.937 680.106 355.113 676.961 351.063C673.827 347.024 667.993 346.29 663.954 349.431C659.908 352.572 659.183 358.396 662.321 362.442Z" fill="#8E8E8E"/>
<path d="M662.321 362.442C663.599 364.087 665.321 365.183 667.187 365.694C668.78 366.131 670.479 366.14 672.095 365.697C673.235 365.385 674.334 364.848 675.325 364.078C679.368 360.937 680.106 355.113 676.961 351.063C673.827 347.024 667.993 346.29 663.954 349.431C659.908 352.572 659.183 358.396 662.321 362.442Z" fill="url(#paint36_angular_27_160)" style="mix-blend-mode:difference"/>
<path d="M662.321 362.442C663.599 364.087 665.321 365.183 667.187 365.694C668.78 366.131 670.479 366.14 672.095 365.697C673.235 365.385 674.334 364.848 675.325 364.078C679.368 360.937 680.106 355.113 676.961 351.063C673.827 347.024 667.993 346.29 663.954 349.431C659.908 352.572 659.183 358.396 662.321 362.442Z" fill="url(#paint37_angular_27_160)" style="mix-blend-mode:screen"/>
<path d="M524.033 671.437C523.129 673.315 522.915 675.347 523.291 677.245C523.612 678.866 524.362 680.389 525.48 681.638C526.267 682.519 527.238 683.262 528.368 683.807C532.98 686.023 538.523 684.083 540.745 679.466C542.965 674.859 541.02 669.309 536.404 667.098C531.791 664.877 526.253 666.823 524.033 671.437Z" fill="#8E8E8E"/>
<path d="M524.033 671.437C523.129 673.315 522.915 675.347 523.291 677.245C523.612 678.866 524.362 680.389 525.48 681.638C526.267 682.519 527.238 683.262 528.368 683.807C532.98 686.023 538.523 684.083 540.745 679.466C542.965 674.859 541.02 669.309 536.404 667.098C531.791 664.877 526.253 666.823 524.033 671.437Z" fill="url(#paint38_angular_27_160)" style="mix-blend-mode:difference"/>
<path d="M524.033 671.437C523.129 673.315 522.915 675.347 523.291 677.245C523.612 678.866 524.362 680.389 525.48 681.638C526.267 682.519 527.238 683.262 528.368 683.807C532.98 686.023 538.523 684.083 540.745 679.466C542.965 674.859 541.02 669.309 536.404 667.098C531.791 664.877 526.253 666.823 524.033 671.437Z" fill="url(#paint39_angular_27_160)" style="mix-blend-mode:screen"/>
<path d="M636.882 614.805C635.979 616.684 635.766 618.716 636.142 620.615C636.463 622.236 637.213 623.76 638.33 625.008C639.118 625.888 640.087 626.631 641.217 627.175C645.833 629.392 651.375 627.455 653.594 622.838C655.811 618.228 653.869 612.68 649.254 610.464C644.64 608.245 639.102 610.192 636.882 614.805Z" fill="#8E8E8E"/>
<path d="M636.882 614.805C635.979 616.684 635.766 618.716 636.142 620.615C636.463 622.236 637.213 623.76 638.33 625.008C639.118 625.888 640.087 626.631 641.217 627.175C645.833 629.392 651.375 627.455 653.594 622.838C655.811 618.228 653.869 612.68 649.254 610.464C644.64 608.245 639.102 610.192 636.882 614.805Z" fill="url(#paint40_angular_27_160)" style="mix-blend-mode:difference"/>
<path d="M636.882 614.805C635.979 616.684 635.766 618.716 636.142 620.615C636.463 622.236 637.213 623.76 638.33 625.008C639.118 625.888 640.087 626.631 641.217 627.175C645.833 629.392 651.375 627.455 653.594 622.838C655.811 618.228 653.869 612.68 649.254 610.464C644.64 608.245 639.102 610.192 636.882 614.805Z" fill="url(#paint41_angular_27_160)" style="mix-blend-mode:screen"/>
<path d="M688.602 329.081C689.794 330.616 691.373 331.674 693.095 332.223C694.674 332.727 696.373 332.804 698.003 332.429C699.276 332.137 700.507 331.57 701.607 330.717C705.649 327.575 706.387 321.748 703.243 317.702C700.105 313.663 694.271 312.927 690.232 316.068C686.189 319.211 685.464 325.035 688.602 329.081Z" fill="#8E8E8E"/>
<path d="M688.602 329.081C689.794 330.616 691.373 331.674 693.095 332.223C694.674 332.727 696.373 332.804 698.003 332.429C699.276 332.137 700.507 331.57 701.607 330.717C705.649 327.575 706.387 321.748 703.243 317.702C700.105 313.663 694.271 312.927 690.232 316.068C686.189 319.211 685.464 325.035 688.602 329.081Z" fill="url(#paint42_angular_27_160)" style="mix-blend-mode:difference"/>
<path d="M688.602 329.081C689.794 330.616 691.373 331.674 693.095 332.223C694.674 332.727 696.373 332.804 698.003 332.429C699.276 332.137 700.507 331.57 701.607 330.717C705.649 327.575 706.387 321.748 703.243 317.702C700.105 313.663 694.271 312.927 690.232 316.068C686.189 319.211 685.464 325.035 688.602 329.081Z" fill="url(#paint43_angular_27_160)" style="mix-blend-mode:screen"/>
<path d="M185.005 671.375L208.973 653.493L208.941 653.451L316.869 707.438L297.552 721.847L247.323 696.686C246.995 698.329 246.227 699.843 245.124 701.073L298.061 727.593L321.782 709.895L420.767 759.409L420.673 781.674L372.628 757.606C372.3 759.248 371.532 760.762 370.429 761.991L421.94 787.798C421.979 787.826 422.02 787.853 422.062 787.878C422.79 788.323 423.683 788.361 424.447 787.981L476.032 762.138C474.928 760.909 474.16 759.394 473.832 757.751L425.785 781.82L425.694 759.558L524.679 710.044L548.4 727.741L601.338 701.22C600.235 699.991 599.466 698.477 599.138 696.834L548.909 721.996L529.591 707.587L637.469 653.625L661.455 671.522L714.393 645.003C713.29 643.773 712.522 642.259 712.194 640.616L661.964 665.777L642.383 651.167L723.211 610.698V551.493C721.617 551.929 719.918 551.937 718.303 551.494V607.671L698.003 617.867V497.178L723.373 484.438V425.231C721.779 425.667 720.081 425.676 718.465 425.233V481.408L698.003 491.684V371.102L723.747 358.175V298.968C722.153 299.404 720.455 299.412 718.839 298.969V355.148L698.003 365.611V332.429C696.373 332.804 694.674 332.727 693.095 332.223V432.423L672.095 421.877V365.697C670.479 366.14 668.78 366.131 667.187 365.694V424.904L693.095 437.917V558.495L672.468 548.136V491.957C670.852 492.4 669.153 492.392 667.56 491.956V551.166L693.095 563.988V620.314L587.969 672.898L588.043 650.055L638.33 625.008C637.213 623.76 636.463 622.236 636.142 620.615L583.144 647.014L583.053 675.357L475.121 729.345L475.194 706.684L525.48 681.638C524.362 680.389 523.612 678.866 523.291 677.245L470.296 703.643L470.205 731.804L423.379 755.227L376.258 731.656L376.167 703.498L323.168 677.098C322.848 678.719 322.097 680.244 320.98 681.493L371.269 706.539L371.342 729.197L263.408 675.207L263.314 646.865L210.319 620.466C209.998 622.087 209.248 623.612 208.131 624.861L258.416 649.907L258.491 672.748L153.367 620.164V563.842L178.899 551.02V491.811C177.305 492.246 175.606 492.254 173.991 491.811V547.99L153.367 558.348V437.77L179.271 424.757V365.548C177.677 365.984 175.979 365.992 174.363 365.549V421.731L153.367 432.276V332.074C151.788 332.577 150.089 332.654 148.459 332.28V365.466L127.625 355.002V298.823C126.009 299.266 124.311 299.258 122.717 298.823V358.029L148.459 370.957V491.54L127.997 481.264V425.085C126.381 425.528 124.683 425.52 123.089 425.084V484.29L148.459 497.035V617.719L128.161 607.528V551.348C126.545 551.791 124.847 551.784 123.253 551.348V610.554L204.081 651.02L184.496 665.629L134.265 640.468C133.937 642.111 133.169 643.625 132.065 644.855L185.005 671.375Z" fill="#8E8E8E"/>
<path d="M185.005 671.375L208.973 653.493L208.941 653.451L316.869 707.438L297.552 721.847L247.323 696.686C246.995 698.329 246.227 699.843 245.124 701.073L298.061 727.593L321.782 709.895L420.767 759.409L420.673 781.674L372.628 757.606C372.3 759.248 371.532 760.762 370.429 761.991L421.94 787.798C421.979 787.826 422.02 787.853 422.062 787.878C422.79 788.323 423.683 788.361 424.447 787.981L476.032 762.138C474.928 760.909 474.16 759.394 473.832 757.751L425.785 781.82L425.694 759.558L524.679 710.044L548.4 727.741L601.338 701.22C600.235 699.991 599.466 698.477 599.138 696.834L548.909 721.996L529.591 707.587L637.469 653.625L661.455 671.522L714.393 645.003C713.29 643.773 712.522 642.259 712.194 640.616L661.964 665.777L642.383 651.167L723.211 610.698V551.493C721.617 551.929 719.918 551.937 718.303 551.494V607.671L698.003 617.867V497.178L723.373 484.438V425.231C721.779 425.667 720.081 425.676 718.465 425.233V481.408L698.003 491.684V371.102L723.747 358.175V298.968C722.153 299.404 720.455 299.412 718.839 298.969V355.148L698.003 365.611V332.429C696.373 332.804 694.674 332.727 693.095 332.223V432.423L672.095 421.877V365.697C670.479 366.14 668.78 366.131 667.187 365.694V424.904L693.095 437.917V558.495L672.468 548.136V491.957C670.852 492.4 669.153 492.392 667.56 491.956V551.166L693.095 563.988V620.314L587.969 672.898L588.043 650.055L638.33 625.008C637.213 623.76 636.463 622.236 636.142 620.615L583.144 647.014L583.053 675.357L475.121 729.345L475.194 706.684L525.48 681.638C524.362 680.389 523.612 678.866 523.291 677.245L470.296 703.643L470.205 731.804L423.379 755.227L376.258 731.656L376.167 703.498L323.168 677.098C322.848 678.719 322.097 680.244 320.98 681.493L371.269 706.539L371.342 729.197L263.408 675.207L263.314 646.865L210.319 620.466C209.998 622.087 209.248 623.612 208.131 624.861L258.416 649.907L258.491 672.748L153.367 620.164V563.842L178.899 551.02V491.811C177.305 492.246 175.606 492.254 173.991 491.811V547.99L153.367 558.348V437.77L179.271 424.757V365.548C177.677 365.984 175.979 365.992 174.363 365.549V421.731L153.367 432.276V332.074C151.788 332.577 150.089 332.654 148.459 332.28V365.466L127.625 355.002V298.823C126.009 299.266 124.311 299.258 122.717 298.823V358.029L148.459 370.957V491.54L127.997 481.264V425.085C126.381 425.528 124.683 425.52 123.089 425.084V484.29L148.459 497.035V617.719L128.161 607.528V551.348C126.545 551.791 124.847 551.784 123.253 551.348V610.554L204.081 651.02L184.496 665.629L134.265 640.468C133.937 642.111 133.169 643.625 132.065 644.855L185.005 671.375Z" fill="url(#paint44_angular_27_160)" style="mix-blend-mode:difference"/>
<path d="M185.005 671.375L208.973 653.493L208.941 653.451L316.869 707.438L297.552 721.847L247.323 696.686C246.995 698.329 246.227 699.843 245.124 701.073L298.061 727.593L321.782 709.895L420.767 759.409L420.673 781.674L372.628 757.606C372.3 759.248 371.532 760.762 370.429 761.991L421.94 787.798C421.979 787.826 422.02 787.853 422.062 787.878C422.79 788.323 423.683 788.361 424.447 787.981L476.032 762.138C474.928 760.909 474.16 759.394 473.832 757.751L425.785 781.82L425.694 759.558L524.679 710.044L548.4 727.741L601.338 701.22C600.235 699.991 599.466 698.477 599.138 696.834L548.909 721.996L529.591 707.587L637.469 653.625L661.455 671.522L714.393 645.003C713.29 643.773 712.522 642.259 712.194 640.616L661.964 665.777L642.383 651.167L723.211 610.698V551.493C721.617 551.929 719.918 551.937 718.303 551.494V607.671L698.003 617.867V497.178L723.373 484.438V425.231C721.779 425.667 720.081 425.676 718.465 425.233V481.408L698.003 491.684V371.102L723.747 358.175V298.968C722.153 299.404 720.455 299.412 718.839 298.969V355.148L698.003 365.611V332.429C696.373 332.804 694.674 332.727 693.095 332.223V432.423L672.095 421.877V365.697C670.479 366.14 668.78 366.131 667.187 365.694V424.904L693.095 437.917V558.495L672.468 548.136V491.957C670.852 492.4 669.153 492.392 667.56 491.956V551.166L693.095 563.988V620.314L587.969 672.898L588.043 650.055L638.33 625.008C637.213 623.76 636.463 622.236 636.142 620.615L583.144 647.014L583.053 675.357L475.121 729.345L475.194 706.684L525.48 681.638C524.362 680.389 523.612 678.866 523.291 677.245L470.296 703.643L470.205 731.804L423.379 755.227L376.258 731.656L376.167 703.498L323.168 677.098C322.848 678.719 322.097 680.244 320.98 681.493L371.269 706.539L371.342 729.197L263.408 675.207L263.314 646.865L210.319 620.466C209.998 622.087 209.248 623.612 208.131 624.861L258.416 649.907L258.491 672.748L153.367 620.164V563.842L178.899 551.02V491.811C177.305 492.246 175.606 492.254 173.991 491.811V547.99L153.367 558.348V437.77L179.271 424.757V365.548C177.677 365.984 175.979 365.992 174.363 365.549V421.731L153.367 432.276V332.074C151.788 332.577 150.089 332.654 148.459 332.28V365.466L127.625 355.002V298.823C126.009 299.266 124.311 299.258 122.717 298.823V358.029L148.459 370.957V491.54L127.997 481.264V425.085C126.381 425.528 124.683 425.52 123.089 425.084V484.29L148.459 497.035V617.719L128.161 607.528V551.348C126.545 551.791 124.847 551.784 123.253 551.348V610.554L204.081 651.02L184.496 665.629L134.265 640.468C133.937 642.111 133.169 643.625 132.065 644.855L185.005 671.375Z" fill="url(#paint45_angular_27_160)" style="mix-blend-mode:screen"/>
<path d="M640.093 42.633H206V581.198L423.045 688.835L640.093 581.198V42.633ZM625.369 57.357V572.065L423.045 672.401L220.724 572.065V57.357H625.369Z" fill="#8E8E8E"/>
<path d="M640.093 42.633H206V581.198L423.045 688.835L640.093 581.198V42.633ZM625.369 57.357V572.065L423.045 672.401L220.724 572.065V57.357H625.369Z" fill="url(#paint46_angular_27_160)" style="mix-blend-mode:difference"/>
<path d="M640.093 42.633H206V581.198L423.045 688.835L640.093 581.198V42.633ZM625.369 57.357V572.065L423.045 672.401L220.724 572.065V57.357H625.369Z" fill="url(#paint47_angular_27_160)" style="mix-blend-mode:screen"/>
<path d="M227 402.821H618.055V391.446H227V402.821Z" fill="#8E8E8E"/>
<path d="M227 402.821H618.055V391.446H227V402.821Z" fill="url(#paint48_angular_27_160)" style="mix-blend-mode:difference"/>
<path d="M227 402.821H618.055V391.446H227V402.821Z" fill="url(#paint49_angular_27_160)" style="mix-blend-mode:screen"/>
<path d="M227 561.179H619.151V549.807H227V561.179Z" fill="#8E8E8E"/>
<path d="M227 561.179H619.151V549.807H227V561.179Z" fill="url(#paint50_angular_27_160)" style="mix-blend-mode:difference"/>
<path d="M227 561.179H619.151V549.807H227V561.179Z" fill="url(#paint51_angular_27_160)" style="mix-blend-mode:screen"/>
<path d="M227 529.505H618.77V518.136H227V529.505Z" fill="#8E8E8E"/>
<path d="M227 529.505H618.77V518.136H227V529.505Z" fill="url(#paint52_angular_27_160)" style="mix-blend-mode:difference"/>
<path d="M227 529.505H618.77V518.136H227V529.505Z" fill="url(#paint53_angular_27_160)" style="mix-blend-mode:screen"/>
<path d="M227 497.833H617.518V486.461H227V497.833Z" fill="#8E8E8E"/>
<path d="M227 497.833H617.518V486.461H227V497.833Z" fill="url(#paint54_angular_27_160)" style="mix-blend-mode:difference"/>
<path d="M227 497.833H617.518V486.461H227V497.833Z" fill="url(#paint55_angular_27_160)" style="mix-blend-mode:screen"/>
<path d="M227 466.161H617.68V454.789H227V466.161Z" fill="#8E8E8E"/>
<path d="M227 466.161H617.68V454.789H227V466.161Z" fill="url(#paint56_angular_27_160)" style="mix-blend-mode:difference"/>
<path d="M227 466.161H617.68V454.789H227V466.161Z" fill="url(#paint57_angular_27_160)" style="mix-blend-mode:screen"/>
<path d="M227 434.493H617.729V423.121H227V434.493Z" fill="#8E8E8E"/>
<path d="M227 434.493H617.729V423.121H227V434.493Z" fill="url(#paint58_angular_27_160)" style="mix-blend-mode:difference"/>
<path d="M227 434.493H617.729V423.121H227V434.493Z" fill="url(#paint59_angular_27_160)" style="mix-blend-mode:screen"/>
<path d="M572.022 170.242L423.172 95.2248L274.342 170.242L274.33 170.36L423.183 277.469L572.031 170.36L572.022 170.242Z" fill="#8E8E8E"/>
<path d="M572.022 170.242L423.172 95.2248L274.342 170.242L274.33 170.36L423.183 277.469L572.031 170.36L572.022 170.242Z" fill="url(#paint60_angular_27_160)" style="mix-blend-mode:difference"/>
<path d="M572.022 170.242L423.172 95.2248L274.342 170.242L274.33 170.36L423.183 277.469L572.031 170.36L572.022 170.242Z" fill="url(#paint61_angular_27_160)" style="mix-blend-mode:screen"/>
<path d="M245.633 194.315L267.357 210.941L256.031 219.264L264.466 225.525L275.578 217.498L297.622 233.744L286.261 242.096L294.745 248.592L305.551 240.787L327.896 257.057L316.84 265.184L325.159 271.413L336.015 263.575L358.165 279.845L347.061 288.007L355.312 294.281L366.208 286.415L388.434 302.647L377.293 310.839L385.741 317.15L396.649 309.275L418.924 325.656L407.769 333.856L420.74 343.645L420.603 312.067L237.97 177.202V199.885L245.633 194.315Z" fill="#8E8E8E"/>
<path d="M245.633 194.315L267.357 210.941L256.031 219.264L264.466 225.525L275.578 217.498L297.622 233.744L286.261 242.096L294.745 248.592L305.551 240.787L327.896 257.057L316.84 265.184L325.159 271.413L336.015 263.575L358.165 279.845L347.061 288.007L355.312 294.281L366.208 286.415L388.434 302.647L377.293 310.839L385.741 317.15L396.649 309.275L418.924 325.656L407.769 333.856L420.74 343.645L420.603 312.067L237.97 177.202V199.885L245.633 194.315Z" fill="url(#paint62_angular_27_160)" style="mix-blend-mode:difference"/>
<path d="M245.633 194.315L267.357 210.941L256.031 219.264L264.466 225.525L275.578 217.498L297.622 233.744L286.261 242.096L294.745 248.592L305.551 240.787L327.896 257.057L316.84 265.184L325.159 271.413L336.015 263.575L358.165 279.845L347.061 288.007L355.312 294.281L366.208 286.415L388.434 302.647L377.293 310.839L385.741 317.15L396.649 309.275L418.924 325.656L407.769 333.856L420.74 343.645L420.603 312.067L237.97 177.202V199.885L245.633 194.315Z" fill="url(#paint63_angular_27_160)" style="mix-blend-mode:screen"/>
<path d="M413.418 325.335L396.981 313.31L385.142 321.862L385.187 335.48L401.498 347.801L401.495 334.096L413.418 325.335Z" fill="#8E8E8E"/>
<path d="M413.418 325.335L396.981 313.31L385.142 321.862L385.187 335.48L401.498 347.801L401.495 334.096L413.418 325.335Z" fill="url(#paint64_angular_27_160)" style="mix-blend-mode:difference"/>
<path d="M413.418 325.335L396.981 313.31L385.142 321.862L385.187 335.48L401.498 347.801L401.495 334.096L413.418 325.335Z" fill="url(#paint65_angular_27_160)" style="mix-blend-mode:screen"/>
<path d="M382.848 302.467L366.416 290.444L354.576 298.995L354.617 312.611L370.933 324.935L370.93 311.226L382.848 302.467Z" fill="#8E8E8E"/>
<path d="M382.848 302.467L366.416 290.444L354.576 298.995L354.617 312.611L370.933 324.935L370.93 311.226L382.848 302.467Z" fill="url(#paint66_angular_27_160)" style="mix-blend-mode:difference"/>
<path d="M382.848 302.467L366.416 290.444L354.576 298.995L354.617 312.611L370.933 324.935L370.93 311.226L382.848 302.467Z" fill="url(#paint67_angular_27_160)" style="mix-blend-mode:screen"/>
<path d="M352.689 279.614L336.26 267.589L324.419 276.139L324.463 289.759L340.782 302.078L340.776 288.373L352.689 279.614Z" fill="#8E8E8E"/>
<path d="M352.689 279.614L336.26 267.589L324.419 276.139L324.463 289.759L340.782 302.078L340.776 288.373L352.689 279.614Z" fill="url(#paint68_angular_27_160)" style="mix-blend-mode:difference"/>
<path d="M352.689 279.614L336.26 267.589L324.419 276.139L324.463 289.759L340.782 302.078L340.776 288.373L352.689 279.614Z" fill="url(#paint69_angular_27_160)" style="mix-blend-mode:screen"/>
<path d="M322.341 256.758L305.911 244.735L294.074 253.287L294.117 266.903L310.436 279.225L310.426 265.519L322.341 256.758Z" fill="#8E8E8E"/>
<path d="M322.341 256.758L305.911 244.735L294.074 253.287L294.117 266.903L310.436 279.225L310.426 265.519L322.341 256.758Z" fill="url(#paint70_angular_27_160)" style="mix-blend-mode:difference"/>
<path d="M322.341 256.758L305.911 244.735L294.074 253.287L294.117 266.903L310.436 279.225L310.426 265.519L322.341 256.758Z" fill="url(#paint71_angular_27_160)" style="mix-blend-mode:screen"/>
<path d="M292.151 233.558L275.722 221.534L263.881 230.082L263.925 243.7L280.238 256.022L280.233 242.318L292.151 233.558Z" fill="#8E8E8E"/>
<path d="M292.151 233.558L275.722 221.534L263.881 230.082L263.925 243.7L280.238 256.022L280.233 242.318L292.151 233.558Z" fill="url(#paint72_angular_27_160)" style="mix-blend-mode:difference"/>
<path d="M292.151 233.558L275.722 221.534L263.881 230.082L263.925 243.7L280.238 256.022L280.233 242.318L292.151 233.558Z" fill="url(#paint73_angular_27_160)" style="mix-blend-mode:screen"/>
<path d="M261.765 210.704L245.334 198.677L233.496 207.229L233.54 220.845L249.854 233.171L249.85 219.463L261.765 210.704Z" fill="#8E8E8E"/>
<path d="M261.765 210.704L245.334 198.677L233.496 207.229L233.54 220.845L249.854 233.171L249.85 219.463L261.765 210.704Z" fill="url(#paint74_angular_27_160)" style="mix-blend-mode:difference"/>
<path d="M261.765 210.704L245.334 198.677L233.496 207.229L233.54 220.845L249.854 233.171L249.85 219.463L261.765 210.704Z" fill="url(#paint75_angular_27_160)" style="mix-blend-mode:screen"/>
<path d="M600.871 194.315L579.147 210.941L590.474 219.264L582.038 225.525L570.928 217.498L548.884 233.744L560.24 242.096L551.759 248.592L540.953 240.787L518.612 257.057L529.664 265.184L521.344 271.413L510.492 263.575L488.342 279.845L499.446 288.007L491.195 294.281L480.296 286.415L458.07 302.647L469.211 310.839L460.766 317.15L449.857 309.275L427.58 325.656L438.735 333.856L425.769 343.645L425.906 312.067L608.642 177.084V199.767L600.871 194.315Z" fill="#8E8E8E"/>
<path d="M600.871 194.315L579.147 210.941L590.474 219.264L582.038 225.525L570.928 217.498L548.884 233.744L560.24 242.096L551.759 248.592L540.953 240.787L518.612 257.057L529.664 265.184L521.344 271.413L510.492 263.575L488.342 279.845L499.446 288.007L491.195 294.281L480.296 286.415L458.07 302.647L469.211 310.839L460.766 317.15L449.857 309.275L427.58 325.656L438.735 333.856L425.769 343.645L425.906 312.067L608.642 177.084V199.767L600.871 194.315Z" fill="url(#paint76_angular_27_160)" style="mix-blend-mode:difference"/>
<path d="M600.871 194.315L579.147 210.941L590.474 219.264L582.038 225.525L570.928 217.498L548.884 233.744L560.24 242.096L551.759 248.592L540.953 240.787L518.612 257.057L529.664 265.184L521.344 271.413L510.492 263.575L488.342 279.845L499.446 288.007L491.195 294.281L480.296 286.415L458.07 302.647L469.211 310.839L460.766 317.15L449.857 309.275L427.58 325.656L438.735 333.856L425.769 343.645L425.906 312.067L608.642 177.084V199.767L600.871 194.315Z" fill="url(#paint77_angular_27_160)" style="mix-blend-mode:screen"/>
<path d="M433.229 325.335L449.665 313.31L461.5 321.862L461.456 335.48L445.144 347.801L445.147 334.096L433.229 325.335Z" fill="#8E8E8E"/>
<path d="M433.229 325.335L449.665 313.31L461.5 321.862L461.456 335.48L445.144 347.801L445.147 334.096L433.229 325.335Z" fill="url(#paint78_angular_27_160)" style="mix-blend-mode:difference"/>
<path d="M433.229 325.335L449.665 313.31L461.5 321.862L461.456 335.48L445.144 347.801L445.147 334.096L433.229 325.335Z" fill="url(#paint79_angular_27_160)" style="mix-blend-mode:screen"/>
<path d="M463.792 302.467L480.229 290.444L492.067 298.995L492.026 312.611L475.707 324.935L475.71 311.226L463.792 302.467Z" fill="#8E8E8E"/>
<path d="M463.792 302.467L480.229 290.444L492.067 298.995L492.026 312.611L475.707 324.935L475.71 311.226L463.792 302.467Z" fill="url(#paint80_angular_27_160)" style="mix-blend-mode:difference"/>
<path d="M463.792 302.467L480.229 290.444L492.067 298.995L492.026 312.611L475.707 324.935L475.71 311.226L463.792 302.467Z" fill="url(#paint81_angular_27_160)" style="mix-blend-mode:screen"/>
<path d="M493.954 279.614L510.381 267.589L522.223 276.139L522.178 289.759L505.863 302.078L505.872 288.373L493.954 279.614Z" fill="#8E8E8E"/>
<path d="M493.954 279.614L510.381 267.589L522.223 276.139L522.178 289.759L505.863 302.078L505.872 288.373L493.954 279.614Z" fill="url(#paint82_angular_27_160)" style="mix-blend-mode:difference"/>
<path d="M493.954 279.614L510.381 267.589L522.223 276.139L522.178 289.759L505.863 302.078L505.872 288.373L493.954 279.614Z" fill="url(#paint83_angular_27_160)" style="mix-blend-mode:screen"/>
<path d="M524.298 256.758L540.728 244.735L552.566 253.287L552.522 266.903L536.206 279.225L536.216 265.519L524.298 256.758Z" fill="#8E8E8E"/>
<path d="M524.298 256.758L540.728 244.735L552.566 253.287L552.522 266.903L536.206 279.225L536.216 265.519L524.298 256.758Z" fill="url(#paint84_angular_27_160)" style="mix-blend-mode:difference"/>
<path d="M524.298 256.758L540.728 244.735L552.566 253.287L552.522 266.903L536.206 279.225L536.216 265.519L524.298 256.758Z" fill="url(#paint85_angular_27_160)" style="mix-blend-mode:screen"/>
<path d="M554.491 233.558L570.922 221.534L582.763 230.082L582.719 243.7L566.403 256.022L566.409 242.318L554.491 233.558Z" fill="#8E8E8E"/>
<path d="M554.491 233.558L570.922 221.534L582.763 230.082L582.719 243.7L566.403 256.022L566.409 242.318L554.491 233.558Z" fill="url(#paint86_angular_27_160)" style="mix-blend-mode:difference"/>
<path d="M554.491 233.558L570.922 221.534L582.763 230.082L582.719 243.7L566.403 256.022L566.409 242.318L554.491 233.558Z" fill="url(#paint87_angular_27_160)" style="mix-blend-mode:screen"/>
<path d="M584.88 210.704L601.31 198.677L613.148 207.229L613.104 220.845L596.788 233.171L596.795 219.463L584.88 210.704Z" fill="#8E8E8E"/>
<path d="M584.88 210.704L601.31 198.677L613.148 207.229L613.104 220.845L596.788 233.171L596.795 219.463L584.88 210.704Z" fill="url(#paint88_angular_27_160)" style="mix-blend-mode:difference"/>
<path d="M584.88 210.704L601.31 198.677L613.148 207.229L613.104 220.845L596.788 233.171L596.795 219.463L584.88 210.704Z" fill="url(#paint89_angular_27_160)" style="mix-blend-mode:screen"/>
<path fill-rule="evenodd" clip-rule="evenodd" d="M423.707 282.589V282.54L423.299 282.823L422.889 282.541V282.59L270.303 172.649L270.329 168.525L422.51 91.5675V91.5855L423.301 91.1958L424.087 91.5846V91.5666L576.267 168.524L576.294 172.648L423.707 282.589ZM423.184 77.6347L237.964 170.979L423.184 306.685V306.854L423.299 306.77L423.416 306.855V306.684L608.629 170.978L423.416 77.6337V77.5176L423.301 77.5756L423.184 77.5166V77.6347ZM423.184 77.6347V91.1379L423.301 91.1958L423.416 91.1389V77.6337L423.301 77.5756L423.184 77.6347Z" fill="#8E8E8E"/>
<path fill-rule="evenodd" clip-rule="evenodd" d="M423.707 282.589V282.54L423.299 282.823L422.889 282.541V282.59L270.303 172.649L270.329 168.525L422.51 91.5675V91.5855L423.301 91.1958L424.087 91.5846V91.5666L576.267 168.524L576.294 172.648L423.707 282.589ZM423.184 77.6347L237.964 170.979L423.184 306.685V306.854L423.299 306.77L423.416 306.855V306.684L608.629 170.978L423.416 77.6337V77.5176L423.301 77.5756L423.184 77.5166V77.6347ZM423.184 77.6347V91.1379L423.301 91.1958L423.416 91.1389V77.6337L423.301 77.5756L423.184 77.6347Z" fill="url(#paint90_angular_27_160)" style="mix-blend-mode:difference"/>
<path fill-rule="evenodd" clip-rule="evenodd" d="M423.707 282.589V282.54L423.299 282.823L422.889 282.541V282.59L270.303 172.649L270.329 168.525L422.51 91.5675V91.5855L423.301 91.1958L424.087 91.5846V91.5666L576.267 168.524L576.294 172.648L423.707 282.589ZM423.184 77.6347L237.964 170.979L423.184 306.685V306.854L423.299 306.77L423.416 306.855V306.684L608.629 170.978L423.416 77.6337V77.5176L423.301 77.5756L423.184 77.5166V77.6347ZM423.184 77.6347V91.1379L423.301 91.1958L423.416 91.1389V77.6337L423.301 77.5756L423.184 77.6347Z" fill="url(#paint91_angular_27_160)" style="mix-blend-mode:screen"/>
<path d="M423.184 77.6347V91.1379L423.301 91.1958L423.416 91.1389V77.6337L423.301 77.5756L423.184 77.6347Z" fill="#8E8E8E"/>
<path d="M423.184 77.6347V91.1379L423.301 91.1958L423.416 91.1389V77.6337L423.301 77.5756L423.184 77.6347Z" fill="url(#paint92_angular_27_160)" style="mix-blend-mode:difference"/>
<path d="M423.184 77.6347V91.1379L423.301 91.1958L423.416 91.1389V77.6337L423.301 77.5756L423.184 77.6347Z" fill="url(#paint93_angular_27_160)" style="mix-blend-mode:screen"/>
<path d="M153.837 373.065L206.182 333.319V373.065H153.837Z" fill="url(#paint94_linear_27_160)"/>
<path d="M692.76 484.292L640.344 444.549V484.292H692.76Z" fill="url(#paint95_linear_27_160)"/>
<path d="M473.386 484.292H302.11L325.204 471.019H495.657L473.386 484.292Z" fill="url(#paint96_linear_27_160)"/>
<path d="M692.759 582.249H302.106V484.294H692.759V582.249Z" fill="#C40C19"/>
<path d="M495.656 471.018H153.839V373.062H495.656V471.018Z" fill="#C40C19"/>
<path d="M164.141 405.191C164.141 400.524 165.239 396.956 167.435 394.486C169.686 391.96 173.035 390.698 177.481 390.698C181.928 390.698 185.25 391.96 187.446 394.486C189.696 396.956 190.822 400.524 190.822 405.191V407.002H182.258V404.614C182.258 402.528 181.846 401.073 181.022 400.25C180.254 399.372 179.156 398.932 177.728 398.932C176.301 398.932 175.176 399.372 174.352 400.25C173.584 401.073 173.199 402.528 173.199 404.614C173.199 406.591 173.639 408.348 174.517 409.885C175.395 411.367 176.493 412.794 177.811 414.167C179.128 415.484 180.528 416.829 182.011 418.202C183.548 419.519 184.975 420.974 186.293 422.566C187.61 424.158 188.708 425.97 189.587 428.001C190.465 430.032 190.904 432.421 190.904 435.166C190.904 439.832 189.751 443.428 187.446 445.953C185.195 448.424 181.846 449.659 177.399 449.659C172.952 449.659 169.576 448.424 167.27 445.953C165.019 443.428 163.894 439.832 163.894 435.166V431.625H172.458V435.742C172.458 437.828 172.87 439.283 173.693 440.106C174.572 440.93 175.725 441.342 177.152 441.342C178.579 441.342 179.705 440.93 180.528 440.106C181.407 439.283 181.846 437.828 181.846 435.742C181.846 433.766 181.407 432.036 180.528 430.554C179.65 429.017 178.552 427.59 177.234 426.272C175.917 424.899 174.489 423.554 172.952 422.237C171.47 420.864 170.07 419.382 168.753 417.79C167.435 416.198 166.337 414.386 165.459 412.355C164.58 410.324 164.141 407.936 164.141 405.191ZM209.27 415.649H221.704V423.884H209.27V440.765H224.916V449H200.211V391.356H224.916V399.591H209.27V415.649ZM253.834 432.283L260.01 391.356H272.609V449H264.045V407.661L257.786 449H249.222L242.469 408.238V449H234.564V391.356H247.163L253.834 432.283ZM312.631 449H303.491L301.926 438.542H290.809L289.244 449H280.927L290.15 391.356H303.408L312.631 449ZM291.962 430.719H300.691L296.326 401.568L291.962 430.719ZM329.037 407.25V449H320.885V391.356H332.249L341.554 425.86V391.356H349.624V449H340.319L329.037 407.25ZM389.543 449H380.402L378.838 438.542H367.721L366.156 449H357.839L367.062 391.356H380.32L389.543 449ZM368.874 430.719H377.603L373.238 401.568L368.874 430.719ZM414.783 391.356H429.111C433.668 391.356 437.044 392.564 439.24 394.98C441.491 397.395 442.616 400.936 442.616 405.603V434.754C442.616 439.42 441.491 442.961 439.24 445.377C437.044 447.792 433.668 449 429.111 449H414.783V391.356ZM423.841 399.591V440.765H428.947C430.374 440.765 431.499 440.353 432.323 439.53C433.146 438.706 433.558 437.252 433.558 435.166V405.191C433.558 403.105 433.146 401.65 432.323 400.826C431.499 400.003 430.374 399.591 428.947 399.591H423.841ZM481.75 449H472.61L471.045 438.542H459.928L458.364 449H450.046L459.269 391.356H472.527L481.75 449ZM461.081 430.719H469.81L465.445 401.568L461.081 430.719Z" fill="white"/>
<path d="M341.563 538.507V546.166C341.563 550.832 340.41 554.428 338.104 556.953C335.853 559.424 332.505 560.659 328.058 560.659C323.611 560.659 320.235 559.424 317.929 556.953C315.678 554.428 314.553 550.832 314.553 546.166V516.191C314.553 511.524 315.678 507.956 317.929 505.486C320.235 502.96 323.611 501.698 328.058 501.698C332.505 501.698 335.853 502.96 338.104 505.486C340.41 507.956 341.563 511.524 341.563 516.191V521.791H332.999V515.614C332.999 513.528 332.56 512.073 331.681 511.25C330.858 510.372 329.732 509.932 328.305 509.932C326.878 509.932 325.725 510.372 324.846 511.25C324.023 512.073 323.611 513.528 323.611 515.614V546.742C323.611 548.828 324.023 550.283 324.846 551.106C325.725 551.93 326.878 552.342 328.305 552.342C329.732 552.342 330.858 551.93 331.681 551.106C332.56 550.283 332.999 548.828 332.999 546.742V538.507H341.563ZM359.494 546.742C359.494 548.828 359.905 550.31 360.729 551.189C361.607 552.012 362.76 552.424 364.187 552.424C365.615 552.424 366.74 552.012 367.564 551.189C368.442 550.31 368.881 548.828 368.881 546.742V515.614C368.881 513.528 368.442 512.073 367.564 511.25C366.74 510.372 365.615 509.932 364.187 509.932C362.76 509.932 361.607 510.372 360.729 511.25C359.905 512.073 359.494 513.528 359.494 515.614V546.742ZM350.435 516.191C350.435 511.524 351.616 507.956 353.976 505.486C356.337 502.96 359.741 501.698 364.187 501.698C368.634 501.698 372.038 502.96 374.399 505.486C376.759 507.956 377.94 511.524 377.94 516.191V546.166C377.94 550.832 376.759 554.428 374.399 556.953C372.038 559.424 368.634 560.659 364.187 560.659C359.741 560.659 356.337 559.424 353.976 556.953C351.616 554.428 350.435 550.832 350.435 546.166V516.191ZM407.131 543.283L413.307 502.356H425.906V560H417.342V518.661L411.083 560H402.519L395.767 519.238V560H387.861V502.356H400.46L407.131 543.283ZM449.953 502.356C454.51 502.356 457.886 503.564 460.082 505.98C462.333 508.395 463.458 511.936 463.458 516.603V524.096C463.458 528.763 462.333 532.304 460.082 534.719C457.886 537.135 454.51 538.342 449.953 538.342H445.671V560H436.613V502.356H449.953ZM445.671 510.591V530.108H449.953C451.38 530.108 452.478 529.723 453.247 528.955C454.015 528.186 454.4 526.759 454.4 524.673V516.026C454.4 513.94 454.015 512.513 453.247 511.744C452.478 510.975 451.38 510.591 449.953 510.591H445.671ZM480.418 502.356V546.824C480.418 548.91 480.83 550.365 481.653 551.189C482.531 552.012 483.684 552.424 485.112 552.424C486.539 552.424 487.664 552.012 488.488 551.189C489.366 550.365 489.806 548.91 489.806 546.824V502.356H498.37V546.248C498.37 550.914 497.217 554.51 494.911 557.035C492.66 559.506 489.311 560.741 484.865 560.741C480.418 560.741 477.042 559.506 474.736 557.035C472.485 554.51 471.36 550.914 471.36 546.248V502.356H480.418ZM506.064 502.356H534.062V510.591H524.592V560H515.534V510.591H506.064V502.356ZM568.349 560H559.208L557.644 549.542H546.527L544.962 560H536.645L545.868 502.356H559.126L568.349 560ZM547.679 541.719H556.408L552.044 512.568L547.679 541.719ZM602.873 538.507V546.166C602.873 550.448 601.885 553.851 599.909 556.377C597.932 558.847 595.023 560.247 591.18 560.576V563.212C593.211 563.212 594.721 563.486 595.709 564.035C596.752 564.639 597.274 565.655 597.274 567.082C597.274 568.18 597.054 569.058 596.615 569.717C596.231 570.376 595.654 570.87 594.885 571.199C594.172 571.584 593.293 571.831 592.25 571.94C591.262 572.05 590.164 572.105 588.956 572.105C586.706 572.105 584.812 571.776 583.274 571.117C581.792 570.513 581.051 569.25 581.051 567.329V566.505H587.145V567.164C587.145 567.768 587.337 568.18 587.721 568.4C588.106 568.674 588.517 568.811 588.956 568.811C590.329 568.811 591.015 568.152 591.015 566.835C591.015 565.408 590.027 564.694 588.051 564.694H587.227V560.494C583.439 560.11 580.584 558.71 578.663 556.294C576.796 553.824 575.863 550.448 575.863 546.166V516.191C575.863 511.524 576.989 507.956 579.239 505.486C581.545 502.96 584.921 501.698 589.368 501.698C593.815 501.698 597.164 502.96 599.415 505.486C601.72 507.956 602.873 511.524 602.873 516.191V521.791H594.309V515.614C594.309 513.528 593.87 512.073 592.991 511.25C592.168 510.372 591.043 509.932 589.615 509.932C588.188 509.932 587.035 510.372 586.157 511.25C585.333 512.073 584.921 513.528 584.921 515.614V546.742C584.921 548.828 585.333 550.283 586.157 551.106C587.035 551.93 588.188 552.342 589.615 552.342C591.043 552.342 592.168 551.93 592.991 551.106C593.87 550.283 594.309 548.828 594.309 546.742V538.507H602.873ZM641.803 560H632.662L631.097 549.542H619.98L618.416 560H610.099L619.322 502.356H632.58L641.803 560ZM621.133 541.719H629.862L625.498 512.568L621.133 541.719ZM629.203 493.051C629.972 493.051 630.631 492.914 631.18 492.639C631.729 492.365 632.25 491.706 632.744 490.663L637.109 493.71C636.34 495.796 635.325 497.251 634.062 498.074C632.854 498.898 631.537 499.309 630.109 499.309C629.231 499.309 628.462 499.2 627.804 498.98C627.2 498.76 626.596 498.541 625.992 498.321C625.443 498.047 624.894 497.8 624.345 497.58C623.851 497.361 623.302 497.251 622.698 497.251C621.929 497.251 621.271 497.388 620.722 497.663C620.173 497.937 619.651 498.596 619.157 499.639L614.793 496.592C615.561 494.506 616.549 493.051 617.757 492.228C619.02 491.404 620.365 490.992 621.792 490.992C622.67 490.992 623.412 491.102 624.015 491.322C624.674 491.541 625.278 491.788 625.827 492.063C626.431 492.282 626.98 492.502 627.474 492.722C628.023 492.941 628.6 493.051 629.203 493.051ZM658.375 546.742C658.375 548.828 658.787 550.31 659.61 551.189C660.489 552.012 661.642 552.424 663.069 552.424C664.496 552.424 665.622 552.012 666.445 551.189C667.324 550.31 667.763 548.828 667.763 546.742V515.614C667.763 513.528 667.324 512.073 666.445 511.25C665.622 510.372 664.496 509.932 663.069 509.932C661.642 509.932 660.489 510.372 659.61 511.25C658.787 512.073 658.375 513.528 658.375 515.614V546.742ZM649.317 516.191C649.317 511.524 650.497 507.956 652.858 505.486C655.219 502.96 658.622 501.698 663.069 501.698C667.516 501.698 670.92 502.96 673.28 505.486C675.641 507.956 676.821 511.524 676.821 516.191V546.166C676.821 550.832 675.641 554.428 673.28 556.953C670.92 559.424 667.516 560.659 663.069 560.659C658.622 560.659 655.219 559.424 652.858 556.953C650.497 554.428 649.317 550.832 649.317 546.166V516.191Z" fill="white"/>
<path d="M381.293 594.474V626.237C381.293 627.727 381.587 628.766 382.175 629.355C382.802 629.943 383.626 630.237 384.645 630.237C385.665 630.237 386.469 629.943 387.057 629.355C387.684 628.766 387.998 627.727 387.998 626.237V594.474H394.115V625.825C394.115 629.159 393.292 631.727 391.645 633.531C390.037 635.296 387.645 636.178 384.469 636.178C381.293 636.178 378.881 635.296 377.234 633.531C375.626 631.727 374.822 629.159 374.822 625.825V594.474H381.293ZM410.905 612.767H419.257V618.649H410.905V635.648H404.435V594.474H421.551V600.356H410.905V612.767ZM444.065 635.648C443.986 635.374 443.908 635.119 443.829 634.884C443.751 634.648 443.673 634.354 443.594 634.001C443.555 633.649 443.516 633.198 443.476 632.649C443.476 632.1 443.476 631.413 443.476 630.59V624.12C443.476 622.198 443.143 620.845 442.477 620.061C441.81 619.277 440.732 618.885 439.241 618.885H437.006V635.648H430.536V594.474H440.3C443.673 594.474 446.104 595.259 447.594 596.827C449.123 598.396 449.888 600.768 449.888 603.944V607.18C449.888 611.415 448.476 614.199 445.653 615.532C447.3 616.199 448.417 617.297 449.006 618.826C449.633 620.316 449.947 622.139 449.947 624.296V630.649C449.947 631.668 449.986 632.57 450.064 633.354C450.143 634.1 450.339 634.864 450.653 635.648H444.065ZM437.006 600.356V613.003H439.536C440.751 613.003 441.692 612.689 442.359 612.062C443.065 611.434 443.418 610.297 443.418 608.65V604.591C443.418 603.101 443.143 602.023 442.594 601.356C442.084 600.69 441.261 600.356 440.124 600.356H437.006ZM458.319 629.766C458.672 629.806 459.045 629.825 459.437 629.825C459.829 629.825 460.202 629.825 460.554 629.825C461.574 629.825 462.437 629.57 463.143 629.061C463.888 628.551 464.26 627.492 464.26 625.884V594.474H470.73V625.414C470.73 627.492 470.475 629.198 469.966 630.531C469.456 631.864 468.77 632.923 467.907 633.707C467.044 634.452 466.044 634.982 464.907 635.296C463.809 635.609 462.652 635.766 461.437 635.766C460.849 635.766 460.319 635.766 459.849 635.766C459.378 635.766 458.868 635.727 458.319 635.648V629.766Z" fill="#8E8E8E"/>
<defs>
<radialGradient id="paint0_angular_27_160" cx="0" cy="0" r="1" gradientUnits="userSpaceOnUse" gradientTransform="translate(423.23 534.425) rotate(90) scale(253.816 307.333)">
<stop offset="0.0833333" stop-color="white"/>
<stop offset="0.265625"/>
<stop offset="0.46875" stop-color="white"/>
<stop offset="0.635417"/>
<stop offset="0.791667" stop-color="white"/>
<stop offset="1"/>
</radialGradient>
<radialGradient id="paint1_angular_27_160" cx="0" cy="0" r="1" gradientUnits="userSpaceOnUse" gradientTransform="translate(423.23 534.425) rotate(90) scale(253.816 307.333)">
<stop offset="0.046875" stop-color="white" stop-opacity="0.72"/>
<stop offset="0.244792"/>
<stop offset="0.421875" stop-color="white" stop-opacity="0.72"/>
<stop offset="0.625"/>
<stop offset="0.802083" stop-color="white" stop-opacity="0.72"/>
<stop offset="1"/>
</radialGradient>
<radialGradient id="paint2_angular_27_160" cx="0" cy="0" r="1" gradientUnits="userSpaceOnUse" gradientTransform="translate(423.23 534.425) rotate(90) scale(253.816 307.333)">
<stop offset="0.0833333" stop-color="white"/>
<stop offset="0.265625"/>
<stop offset="0.46875" stop-color="white"/>
<stop offset="0.635417"/>
<stop offset="0.791667" stop-color="white"/>
<stop offset="1"/>
</radialGradient>
<radialGradient id="paint3_angular_27_160" cx="0" cy="0" r="1" gradientUnits="userSpaceOnUse" gradientTransform="translate(423.23 534.425) rotate(90) scale(253.816 307.333)">
<stop offset="0.046875" stop-color="white" stop-opacity="0.72"/>
<stop offset="0.244792"/>
<stop offset="0.421875" stop-color="white" stop-opacity="0.72"/>
<stop offset="0.625"/>
<stop offset="0.802083" stop-color="white" stop-opacity="0.72"/>
<stop offset="1"/>
</radialGradient>
<radialGradient id="paint4_angular_27_160" cx="0" cy="0" r="1" gradientUnits="userSpaceOnUse" gradientTransform="translate(423.23 534.425) rotate(90) scale(253.816 307.333)">
<stop offset="0.0833333" stop-color="white"/>
<stop offset="0.265625"/>
<stop offset="0.46875" stop-color="white"/>
<stop offset="0.635417"/>
<stop offset="0.791667" stop-color="white"/>
<stop offset="1"/>
</radialGradient>
<radialGradient id="paint5_angular_27_160" cx="0" cy="0" r="1" gradientUnits="userSpaceOnUse" gradientTransform="translate(423.23 534.425) rotate(90) scale(253.816 307.333)">
<stop offset="0.046875" stop-color="white" stop-opacity="0.72"/>
<stop offset="0.244792"/>
<stop offset="0.421875" stop-color="white" stop-opacity="0.72"/>
<stop offset="0.625"/>
<stop offset="0.802083" stop-color="white" stop-opacity="0.72"/>
<stop offset="1"/>
</radialGradient>
<radialGradient id="paint6_angular_27_160" cx="0" cy="0" r="1" gradientUnits="userSpaceOnUse" gradientTransform="translate(423.23 534.425) rotate(90) scale(253.816 307.333)">
<stop offset="0.0833333" stop-color="white"/>
<stop offset="0.265625"/>
<stop offset="0.46875" stop-color="white"/>
<stop offset="0.635417"/>
<stop offset="0.791667" stop-color="white"/>
<stop offset="1"/>
</radialGradient>
<radialGradient id="paint7_angular_27_160" cx="0" cy="0" r="1" gradientUnits="userSpaceOnUse" gradientTransform="translate(423.23 534.425) rotate(90) scale(253.816 307.333)">
<stop offset="0.046875" stop-color="white" stop-opacity="0.72"/>
<stop offset="0.244792"/>
<stop offset="0.421875" stop-color="white" stop-opacity="0.72"/>
<stop offset="0.625"/>
<stop offset="0.802083" stop-color="white" stop-opacity="0.72"/>
<stop offset="1"/>
</radialGradient>
<radialGradient id="paint8_angular_27_160" cx="0" cy="0" r="1" gradientUnits="userSpaceOnUse" gradientTransform="translate(423.23 534.425) rotate(90) scale(253.816 307.333)">
<stop offset="0.0833333" stop-color="white"/>
<stop offset="0.265625"/>
<stop offset="0.46875" stop-color="white"/>
<stop offset="0.635417"/>
<stop offset="0.791667" stop-color="white"/>
<stop offset="1"/>
</radialGradient>
<radialGradient id="paint9_angular_27_160" cx="0" cy="0" r="1" gradientUnits="userSpaceOnUse" gradientTransform="translate(423.23 534.425) rotate(90) scale(253.816 307.333)">
<stop offset="0.046875" stop-color="white" stop-opacity="0.72"/>
<stop offset="0.244792"/>
<stop offset="0.421875" stop-color="white" stop-opacity="0.72"/>
<stop offset="0.625"/>
<stop offset="0.802083" stop-color="white" stop-opacity="0.72"/>
<stop offset="1"/>
</radialGradient>
<radialGradient id="paint10_angular_27_160" cx="0" cy="0" r="1" gradientUnits="userSpaceOnUse" gradientTransform="translate(423.23 534.425) rotate(90) scale(253.816 307.333)">
<stop offset="0.0833333" stop-color="white"/>
<stop offset="0.265625"/>
<stop offset="0.46875" stop-color="white"/>
<stop offset="0.635417"/>
<stop offset="0.791667" stop-color="white"/>
<stop offset="1"/>
</radialGradient>
<radialGradient id="paint11_angular_27_160" cx="0" cy="0" r="1" gradientUnits="userSpaceOnUse" gradientTransform="translate(423.23 534.425) rotate(90) scale(253.816 307.333)">
<stop offset="0.046875" stop-color="white" stop-opacity="0.72"/>
<stop offset="0.244792"/>
<stop offset="0.421875" stop-color="white" stop-opacity="0.72"/>
<stop offset="0.625"/>
<stop offset="0.802083" stop-color="white" stop-opacity="0.72"/>
<stop offset="1"/>
</radialGradient>
<radialGradient id="paint12_angular_27_160" cx="0" cy="0" r="1" gradientUnits="userSpaceOnUse" gradientTransform="translate(423.23 534.425) rotate(90) scale(253.816 307.333)">
<stop offset="0.0833333" stop-color="white"/>
<stop offset="0.265625"/>
<stop offset="0.46875" stop-color="white"/>
<stop offset="0.635417"/>
<stop offset="0.791667" stop-color="white"/>
<stop offset="1"/>
</radialGradient>
<radialGradient id="paint13_angular_27_160" cx="0" cy="0" r="1" gradientUnits="userSpaceOnUse" gradientTransform="translate(423.23 534.425) rotate(90) scale(253.816 307.333)">
<stop offset="0.046875" stop-color="white" stop-opacity="0.72"/>
<stop offset="0.244792"/>
<stop offset="0.421875" stop-color="white" stop-opacity="0.72"/>
<stop offset="0.625"/>
<stop offset="0.802083" stop-color="white" stop-opacity="0.72"/>
<stop offset="1"/>
</radialGradient>
<radialGradient id="paint14_angular_27_160" cx="0" cy="0" r="1" gradientUnits="userSpaceOnUse" gradientTransform="translate(423.23 534.425) rotate(90) scale(253.816 307.333)">
<stop offset="0.0833333" stop-color="white"/>
<stop offset="0.265625"/>
<stop offset="0.46875" stop-color="white"/>
<stop offset="0.635417"/>
<stop offset="0.791667" stop-color="white"/>
<stop offset="1"/>
</radialGradient>
<radialGradient id="paint15_angular_27_160" cx="0" cy="0" r="1" gradientUnits="userSpaceOnUse" gradientTransform="translate(423.23 534.425) rotate(90) scale(253.816 307.333)">
<stop offset="0.046875" stop-color="white" stop-opacity="0.72"/>
<stop offset="0.244792"/>
<stop offset="0.421875" stop-color="white" stop-opacity="0.72"/>
<stop offset="0.625"/>
<stop offset="0.802083" stop-color="white" stop-opacity="0.72"/>
<stop offset="1"/>
</radialGradient>
<radialGradient id="paint16_angular_27_160" cx="0" cy="0" r="1" gradientUnits="userSpaceOnUse" gradientTransform="translate(423.23 534.425) rotate(90) scale(253.816 307.333)">
<stop offset="0.0833333" stop-color="white"/>
<stop offset="0.265625"/>
<stop offset="0.46875" stop-color="white"/>
<stop offset="0.635417"/>
<stop offset="0.791667" stop-color="white"/>
<stop offset="1"/>
</radialGradient>
<radialGradient id="paint17_angular_27_160" cx="0" cy="0" r="1" gradientUnits="userSpaceOnUse" gradientTransform="translate(423.23 534.425) rotate(90) scale(253.816 307.333)">
<stop offset="0.046875" stop-color="white" stop-opacity="0.72"/>
<stop offset="0.244792"/>
<stop offset="0.421875" stop-color="white" stop-opacity="0.72"/>
<stop offset="0.625"/>
<stop offset="0.802083" stop-color="white" stop-opacity="0.72"/>
<stop offset="1"/>
</radialGradient>
<radialGradient id="paint18_angular_27_160" cx="0" cy="0" r="1" gradientUnits="userSpaceOnUse" gradientTransform="translate(423.23 534.425) rotate(90) scale(253.816 307.333)">
<stop offset="0.0833333" stop-color="white"/>
<stop offset="0.265625"/>
<stop offset="0.46875" stop-color="white"/>
<stop offset="0.635417"/>
<stop offset="0.791667" stop-color="white"/>
<stop offset="1"/>
</radialGradient>
<radialGradient id="paint19_angular_27_160" cx="0" cy="0" r="1" gradientUnits="userSpaceOnUse" gradientTransform="translate(423.23 534.425) rotate(90) scale(253.816 307.333)">
<stop offset="0.046875" stop-color="white" stop-opacity="0.72"/>
<stop offset="0.244792"/>
<stop offset="0.421875" stop-color="white" stop-opacity="0.72"/>
<stop offset="0.625"/>
<stop offset="0.802083" stop-color="white" stop-opacity="0.72"/>
<stop offset="1"/>
</radialGradient>
<radialGradient id="paint20_angular_27_160" cx="0" cy="0" r="1" gradientUnits="userSpaceOnUse" gradientTransform="translate(423.23 534.425) rotate(90) scale(253.816 307.333)">
<stop offset="0.0833333" stop-color="white"/>
<stop offset="0.265625"/>
<stop offset="0.46875" stop-color="white"/>
<stop offset="0.635417"/>
<stop offset="0.791667" stop-color="white"/>
<stop offset="1"/>
</radialGradient>
<radialGradient id="paint21_angular_27_160" cx="0" cy="0" r="1" gradientUnits="userSpaceOnUse" gradientTransform="translate(423.23 534.425) rotate(90) scale(253.816 307.333)">
<stop offset="0.046875" stop-color="white" stop-opacity="0.72"/>
<stop offset="0.244792"/>
<stop offset="0.421875" stop-color="white" stop-opacity="0.72"/>
<stop offset="0.625"/>
<stop offset="0.802083" stop-color="white" stop-opacity="0.72"/>
<stop offset="1"/>
</radialGradient>
<radialGradient id="paint22_angular_27_160" cx="0" cy="0" r="1" gradientUnits="userSpaceOnUse" gradientTransform="translate(423.23 534.425) rotate(90) scale(253.816 307.333)">
<stop offset="0.0833333" stop-color="white"/>
<stop offset="0.265625"/>
<stop offset="0.46875" stop-color="white"/>
<stop offset="0.635417"/>
<stop offset="0.791667" stop-color="white"/>
<stop offset="1"/>
</radialGradient>
<radialGradient id="paint23_angular_27_160" cx="0" cy="0" r="1" gradientUnits="userSpaceOnUse" gradientTransform="translate(423.23 534.425) rotate(90) scale(253.816 307.333)">
<stop offset="0.046875" stop-color="white" stop-opacity="0.72"/>
<stop offset="0.244792"/>
<stop offset="0.421875" stop-color="white" stop-opacity="0.72"/>
<stop offset="0.625"/>
<stop offset="0.802083" stop-color="white" stop-opacity="0.72"/>
<stop offset="1"/>
</radialGradient>
<radialGradient id="paint24_angular_27_160" cx="0" cy="0" r="1" gradientUnits="userSpaceOnUse" gradientTransform="translate(423.23 534.425) rotate(90) scale(253.816 307.333)">
<stop offset="0.0833333" stop-color="white"/>
<stop offset="0.265625"/>
<stop offset="0.46875" stop-color="white"/>
<stop offset="0.635417"/>
<stop offset="0.791667" stop-color="white"/>
<stop offset="1"/>
</radialGradient>
<radialGradient id="paint25_angular_27_160" cx="0" cy="0" r="1" gradientUnits="userSpaceOnUse" gradientTransform="translate(423.23 534.425) rotate(90) scale(253.816 307.333)">
<stop offset="0.046875" stop-color="white" stop-opacity="0.72"/>
<stop offset="0.244792"/>
<stop offset="0.421875" stop-color="white" stop-opacity="0.72"/>
<stop offset="0.625"/>
<stop offset="0.802083" stop-color="white" stop-opacity="0.72"/>
<stop offset="1"/>
</radialGradient>
<radialGradient id="paint26_angular_27_160" cx="0" cy="0" r="1" gradientUnits="userSpaceOnUse" gradientTransform="translate(423.23 534.425) rotate(90) scale(253.816 307.333)">
<stop offset="0.0833333" stop-color="white"/>
<stop offset="0.265625"/>
<stop offset="0.46875" stop-color="white"/>
<stop offset="0.635417"/>
<stop offset="0.791667" stop-color="white"/>
<stop offset="1"/>
</radialGradient>
<radialGradient id="paint27_angular_27_160" cx="0" cy="0" r="1" gradientUnits="userSpaceOnUse" gradientTransform="translate(423.23 534.425) rotate(90) scale(253.816 307.333)">
<stop offset="0.046875" stop-color="white" stop-opacity="0.72"/>
<stop offset="0.244792"/>
<stop offset="0.421875" stop-color="white" stop-opacity="0.72"/>
<stop offset="0.625"/>
<stop offset="0.802083" stop-color="white" stop-opacity="0.72"/>
<stop offset="1"/>
</radialGradient>
<radialGradient id="paint28_angular_27_160" cx="0" cy="0" r="1" gradientUnits="userSpaceOnUse" gradientTransform="translate(423.23 534.425) rotate(90) scale(253.816 307.333)">
<stop offset="0.0833333" stop-color="white"/>
<stop offset="0.265625"/>
<stop offset="0.46875" stop-color="white"/>
<stop offset="0.635417"/>
<stop offset="0.791667" stop-color="white"/>
<stop offset="1"/>
</radialGradient>
<radialGradient id="paint29_angular_27_160" cx="0" cy="0" r="1" gradientUnits="userSpaceOnUse" gradientTransform="translate(423.23 534.425) rotate(90) scale(253.816 307.333)">
<stop offset="0.046875" stop-color="white" stop-opacity="0.72"/>
<stop offset="0.244792"/>
<stop offset="0.421875" stop-color="white" stop-opacity="0.72"/>
<stop offset="0.625"/>
<stop offset="0.802083" stop-color="white" stop-opacity="0.72"/>
<stop offset="1"/>
</radialGradient>
<radialGradient id="paint30_angular_27_160" cx="0" cy="0" r="1" gradientUnits="userSpaceOnUse" gradientTransform="translate(423.23 534.425) rotate(90) scale(253.816 307.333)">
<stop offset="0.0833333" stop-color="white"/>
<stop offset="0.265625"/>
<stop offset="0.46875" stop-color="white"/>
<stop offset="0.635417"/>
<stop offset="0.791667" stop-color="white"/>
<stop offset="1"/>
</radialGradient>
<radialGradient id="paint31_angular_27_160" cx="0" cy="0" r="1" gradientUnits="userSpaceOnUse" gradientTransform="translate(423.23 534.425) rotate(90) scale(253.816 307.333)">
<stop offset="0.046875" stop-color="white" stop-opacity="0.72"/>
<stop offset="0.244792"/>
<stop offset="0.421875" stop-color="white" stop-opacity="0.72"/>
<stop offset="0.625"/>
<stop offset="0.802083" stop-color="white" stop-opacity="0.72"/>
<stop offset="1"/>
</radialGradient>
<radialGradient id="paint32_angular_27_160" cx="0" cy="0" r="1" gradientUnits="userSpaceOnUse" gradientTransform="translate(423.23 534.425) rotate(90) scale(253.816 307.333)">
<stop offset="0.0833333" stop-color="white"/>
<stop offset="0.265625"/>
<stop offset="0.46875" stop-color="white"/>
<stop offset="0.635417"/>
<stop offset="0.791667" stop-color="white"/>
<stop offset="1"/>
</radialGradient>
<radialGradient id="paint33_angular_27_160" cx="0" cy="0" r="1" gradientUnits="userSpaceOnUse" gradientTransform="translate(423.23 534.425) rotate(90) scale(253.816 307.333)">
<stop offset="0.046875" stop-color="white" stop-opacity="0.72"/>
<stop offset="0.244792"/>
<stop offset="0.421875" stop-color="white" stop-opacity="0.72"/>
<stop offset="0.625"/>
<stop offset="0.802083" stop-color="white" stop-opacity="0.72"/>
<stop offset="1"/>
</radialGradient>
<radialGradient id="paint34_angular_27_160" cx="0" cy="0" r="1" gradientUnits="userSpaceOnUse" gradientTransform="translate(423.23 534.425) rotate(90) scale(253.816 307.333)">
<stop offset="0.0833333" stop-color="white"/>
<stop offset="0.265625"/>
<stop offset="0.46875" stop-color="white"/>
<stop offset="0.635417"/>
<stop offset="0.791667" stop-color="white"/>
<stop offset="1"/>
</radialGradient>
<radialGradient id="paint35_angular_27_160" cx="0" cy="0" r="1" gradientUnits="userSpaceOnUse" gradientTransform="translate(423.23 534.425) rotate(90) scale(253.816 307.333)">
<stop offset="0.046875" stop-color="white" stop-opacity="0.72"/>
<stop offset="0.244792"/>
<stop offset="0.421875" stop-color="white" stop-opacity="0.72"/>
<stop offset="0.625"/>
<stop offset="0.802083" stop-color="white" stop-opacity="0.72"/>
<stop offset="1"/>
</radialGradient>
<radialGradient id="paint36_angular_27_160" cx="0" cy="0" r="1" gradientUnits="userSpaceOnUse" gradientTransform="translate(423.23 534.425) rotate(90) scale(253.816 307.333)">
<stop offset="0.0833333" stop-color="white"/>
<stop offset="0.265625"/>
<stop offset="0.46875" stop-color="white"/>
<stop offset="0.635417"/>
<stop offset="0.791667" stop-color="white"/>
<stop offset="1"/>
</radialGradient>
<radialGradient id="paint37_angular_27_160" cx="0" cy="0" r="1" gradientUnits="userSpaceOnUse" gradientTransform="translate(423.23 534.425) rotate(90) scale(253.816 307.333)">
<stop offset="0.046875" stop-color="white" stop-opacity="0.72"/>
<stop offset="0.244792"/>
<stop offset="0.421875" stop-color="white" stop-opacity="0.72"/>
<stop offset="0.625"/>
<stop offset="0.802083" stop-color="white" stop-opacity="0.72"/>
<stop offset="1"/>
</radialGradient>
<radialGradient id="paint38_angular_27_160" cx="0" cy="0" r="1" gradientUnits="userSpaceOnUse" gradientTransform="translate(423.23 534.425) rotate(90) scale(253.816 307.333)">
<stop offset="0.0833333" stop-color="white"/>
<stop offset="0.265625"/>
<stop offset="0.46875" stop-color="white"/>
<stop offset="0.635417"/>
<stop offset="0.791667" stop-color="white"/>
<stop offset="1"/>
</radialGradient>
<radialGradient id="paint39_angular_27_160" cx="0" cy="0" r="1" gradientUnits="userSpaceOnUse" gradientTransform="translate(423.23 534.425) rotate(90) scale(253.816 307.333)">
<stop offset="0.046875" stop-color="white" stop-opacity="0.72"/>
<stop offset="0.244792"/>
<stop offset="0.421875" stop-color="white" stop-opacity="0.72"/>
<stop offset="0.625"/>
<stop offset="0.802083" stop-color="white" stop-opacity="0.72"/>
<stop offset="1"/>
</radialGradient>
<radialGradient id="paint40_angular_27_160" cx="0" cy="0" r="1" gradientUnits="userSpaceOnUse" gradientTransform="translate(423.23 534.425) rotate(90) scale(253.816 307.333)">
<stop offset="0.0833333" stop-color="white"/>
<stop offset="0.265625"/>
<stop offset="0.46875" stop-color="white"/>
<stop offset="0.635417"/>
<stop offset="0.791667" stop-color="white"/>
<stop offset="1"/>
</radialGradient>
<radialGradient id="paint41_angular_27_160" cx="0" cy="0" r="1" gradientUnits="userSpaceOnUse" gradientTransform="translate(423.23 534.425) rotate(90) scale(253.816 307.333)">
<stop offset="0.046875" stop-color="white" stop-opacity="0.72"/>
<stop offset="0.244792"/>
<stop offset="0.421875" stop-color="white" stop-opacity="0.72"/>
<stop offset="0.625"/>
<stop offset="0.802083" stop-color="white" stop-opacity="0.72"/>
<stop offset="1"/>
</radialGradient>
<radialGradient id="paint42_angular_27_160" cx="0" cy="0" r="1" gradientUnits="userSpaceOnUse" gradientTransform="translate(423.23 534.425) rotate(90) scale(253.816 307.333)">
<stop offset="0.0833333" stop-color="white"/>
<stop offset="0.265625"/>
<stop offset="0.46875" stop-color="white"/>
<stop offset="0.635417"/>
<stop offset="0.791667" stop-color="white"/>
<stop offset="1"/>
</radialGradient>
<radialGradient id="paint43_angular_27_160" cx="0" cy="0" r="1" gradientUnits="userSpaceOnUse" gradientTransform="translate(423.23 534.425) rotate(90) scale(253.816 307.333)">
<stop offset="0.046875" stop-color="white" stop-opacity="0.72"/>
<stop offset="0.244792"/>
<stop offset="0.421875" stop-color="white" stop-opacity="0.72"/>
<stop offset="0.625"/>
<stop offset="0.802083" stop-color="white" stop-opacity="0.72"/>
<stop offset="1"/>
</radialGradient>
<radialGradient id="paint44_angular_27_160" cx="0" cy="0" r="1" gradientUnits="userSpaceOnUse" gradientTransform="translate(423.23 534.425) rotate(90) scale(253.816 307.333)">
<stop offset="0.0833333" stop-color="white"/>
<stop offset="0.265625"/>
<stop offset="0.46875" stop-color="white"/>
<stop offset="0.635417"/>
<stop offset="0.791667" stop-color="white"/>
<stop offset="1"/>
</radialGradient>
<radialGradient id="paint45_angular_27_160" cx="0" cy="0" r="1" gradientUnits="userSpaceOnUse" gradientTransform="translate(423.23 534.425) rotate(90) scale(253.816 307.333)">
<stop offset="0.046875" stop-color="white" stop-opacity="0.72"/>
<stop offset="0.244792"/>
<stop offset="0.421875" stop-color="white" stop-opacity="0.72"/>
<stop offset="0.625"/>
<stop offset="0.802083" stop-color="white" stop-opacity="0.72"/>
<stop offset="1"/>
</radialGradient>
<radialGradient id="paint46_angular_27_160" cx="0" cy="0" r="1" gradientUnits="userSpaceOnUse" gradientTransform="translate(423.046 365.734) rotate(-90) scale(323.101 217.046)">
<stop offset="0.0833333" stop-color="white"/>
<stop offset="0.265625"/>
<stop offset="0.46875" stop-color="white"/>
<stop offset="0.635417"/>
<stop offset="0.791667" stop-color="white"/>
<stop offset="1"/>
</radialGradient>
<radialGradient id="paint47_angular_27_160" cx="0" cy="0" r="1" gradientUnits="userSpaceOnUse" gradientTransform="translate(423.046 365.734) rotate(-90) scale(323.101 217.046)">
<stop offset="0.046875" stop-color="white" stop-opacity="0.72"/>
<stop offset="0.244792"/>
<stop offset="0.421875" stop-color="white" stop-opacity="0.72"/>
<stop offset="0.625"/>
<stop offset="0.802083" stop-color="white" stop-opacity="0.72"/>
<stop offset="1"/>
</radialGradient>
<radialGradient id="paint48_angular_27_160" cx="0" cy="0" r="1" gradientUnits="userSpaceOnUse" gradientTransform="translate(423.075 476.313) rotate(90) scale(84.8663 196.075)">
<stop offset="0.0833333" stop-color="white"/>
<stop offset="0.265625"/>
<stop offset="0.46875" stop-color="white"/>
<stop offset="0.635417"/>
<stop offset="0.791667" stop-color="white"/>
<stop offset="1"/>
</radialGradient>
<radialGradient id="paint49_angular_27_160" cx="0" cy="0" r="1" gradientUnits="userSpaceOnUse" gradientTransform="translate(423.075 476.313) rotate(90) scale(84.8663 196.075)">
<stop offset="0.046875" stop-color="white" stop-opacity="0.72"/>
<stop offset="0.244792"/>
<stop offset="0.421875" stop-color="white" stop-opacity="0.72"/>
<stop offset="0.625"/>
<stop offset="0.802083" stop-color="white" stop-opacity="0.72"/>
<stop offset="1"/>
</radialGradient>
<radialGradient id="paint50_angular_27_160" cx="0" cy="0" r="1" gradientUnits="userSpaceOnUse" gradientTransform="translate(423.075 476.313) rotate(90) scale(84.8663 196.075)">
<stop offset="0.0833333" stop-color="white"/>
<stop offset="0.265625"/>
<stop offset="0.46875" stop-color="white"/>
<stop offset="0.635417"/>
<stop offset="0.791667" stop-color="white"/>
<stop offset="1"/>
</radialGradient>
<radialGradient id="paint51_angular_27_160" cx="0" cy="0" r="1" gradientUnits="userSpaceOnUse" gradientTransform="translate(423.075 476.313) rotate(90) scale(84.8663 196.075)">
<stop offset="0.046875" stop-color="white" stop-opacity="0.72"/>
<stop offset="0.244792"/>
<stop offset="0.421875" stop-color="white" stop-opacity="0.72"/>
<stop offset="0.625"/>
<stop offset="0.802083" stop-color="white" stop-opacity="0.72"/>
<stop offset="1"/>
</radialGradient>
<radialGradient id="paint52_angular_27_160" cx="0" cy="0" r="1" gradientUnits="userSpaceOnUse" gradientTransform="translate(423.075 476.313) rotate(90) scale(84.8663 196.075)">
<stop offset="0.0833333" stop-color="white"/>
<stop offset="0.265625"/>
<stop offset="0.46875" stop-color="white"/>
<stop offset="0.635417"/>
<stop offset="0.791667" stop-color="white"/>
<stop offset="1"/>
</radialGradient>
<radialGradient id="paint53_angular_27_160" cx="0" cy="0" r="1" gradientUnits="userSpaceOnUse" gradientTransform="translate(423.075 476.313) rotate(90) scale(84.8663 196.075)">
<stop offset="0.046875" stop-color="white" stop-opacity="0.72"/>
<stop offset="0.244792"/>
<stop offset="0.421875" stop-color="white" stop-opacity="0.72"/>
<stop offset="0.625"/>
<stop offset="0.802083" stop-color="white" stop-opacity="0.72"/>
<stop offset="1"/>
</radialGradient>
<radialGradient id="paint54_angular_27_160" cx="0" cy="0" r="1" gradientUnits="userSpaceOnUse" gradientTransform="translate(423.075 476.313) rotate(90) scale(84.8663 196.075)">
<stop offset="0.0833333" stop-color="white"/>
<stop offset="0.265625"/>
<stop offset="0.46875" stop-color="white"/>
<stop offset="0.635417"/>
<stop offset="0.791667" stop-color="white"/>
<stop offset="1"/>
</radialGradient>
<radialGradient id="paint55_angular_27_160" cx="0" cy="0" r="1" gradientUnits="userSpaceOnUse" gradientTransform="translate(423.075 476.313) rotate(90) scale(84.8663 196.075)">
<stop offset="0.046875" stop-color="white" stop-opacity="0.72"/>
<stop offset="0.244792"/>
<stop offset="0.421875" stop-color="white" stop-opacity="0.72"/>
<stop offset="0.625"/>
<stop offset="0.802083" stop-color="white" stop-opacity="0.72"/>
<stop offset="1"/>
</radialGradient>
<radialGradient id="paint56_angular_27_160" cx="0" cy="0" r="1" gradientUnits="userSpaceOnUse" gradientTransform="translate(423.075 476.313) rotate(90) scale(84.8663 196.075)">
<stop offset="0.0833333" stop-color="white"/>
<stop offset="0.265625"/>
<stop offset="0.46875" stop-color="white"/>
<stop offset="0.635417"/>
<stop offset="0.791667" stop-color="white"/>
<stop offset="1"/>
</radialGradient>
<radialGradient id="paint57_angular_27_160" cx="0" cy="0" r="1" gradientUnits="userSpaceOnUse" gradientTransform="translate(423.075 476.313) rotate(90) scale(84.8663 196.075)">
<stop offset="0.046875" stop-color="white" stop-opacity="0.72"/>
<stop offset="0.244792"/>
<stop offset="0.421875" stop-color="white" stop-opacity="0.72"/>
<stop offset="0.625"/>
<stop offset="0.802083" stop-color="white" stop-opacity="0.72"/>
<stop offset="1"/>
</radialGradient>
<radialGradient id="paint58_angular_27_160" cx="0" cy="0" r="1" gradientUnits="userSpaceOnUse" gradientTransform="translate(423.075 476.313) rotate(90) scale(84.8663 196.075)">
<stop offset="0.0833333" stop-color="white"/>
<stop offset="0.265625"/>
<stop offset="0.46875" stop-color="white"/>
<stop offset="0.635417"/>
<stop offset="0.791667" stop-color="white"/>
<stop offset="1"/>
</radialGradient>
<radialGradient id="paint59_angular_27_160" cx="0" cy="0" r="1" gradientUnits="userSpaceOnUse" gradientTransform="translate(423.075 476.313) rotate(90) scale(84.8663 196.075)">
<stop offset="0.046875" stop-color="white" stop-opacity="0.72"/>
<stop offset="0.244792"/>
<stop offset="0.421875" stop-color="white" stop-opacity="0.72"/>
<stop offset="0.625"/>
<stop offset="0.802083" stop-color="white" stop-opacity="0.72"/>
<stop offset="1"/>
</radialGradient>
<radialGradient id="paint60_angular_27_160" cx="0" cy="0" r="1" gradientUnits="userSpaceOnUse" gradientTransform="translate(423 180) rotate(89.89) scale(167.801 235.701)">
<stop offset="0.0833333" stop-color="white"/>
<stop offset="0.265625"/>
<stop offset="0.46875" stop-color="white"/>
<stop offset="0.635417"/>
<stop offset="0.791667" stop-color="white"/>
<stop offset="1"/>
</radialGradient>
<radialGradient id="paint61_angular_27_160" cx="0" cy="0" r="1" gradientUnits="userSpaceOnUse" gradientTransform="translate(423 180) rotate(89.89) scale(167.801 235.701)">
<stop offset="0.046875" stop-color="white" stop-opacity="0.72"/>
<stop offset="0.244792"/>
<stop offset="0.421875" stop-color="white" stop-opacity="0.72"/>
<stop offset="0.625"/>
<stop offset="0.802083" stop-color="white" stop-opacity="0.72"/>
<stop offset="1"/>
</radialGradient>
<radialGradient id="paint62_angular_27_160" cx="0" cy="0" r="1" gradientUnits="userSpaceOnUse" gradientTransform="translate(423 180) rotate(89.89) scale(167.801 235.701)">
<stop offset="0.0833333" stop-color="white"/>
<stop offset="0.265625"/>
<stop offset="0.46875" stop-color="white"/>
<stop offset="0.635417"/>
<stop offset="0.791667" stop-color="white"/>
<stop offset="1"/>
</radialGradient>
<radialGradient id="paint63_angular_27_160" cx="0" cy="0" r="1" gradientUnits="userSpaceOnUse" gradientTransform="translate(423 180) rotate(89.89) scale(167.801 235.701)">
<stop offset="0.046875" stop-color="white" stop-opacity="0.72"/>
<stop offset="0.244792"/>
<stop offset="0.421875" stop-color="white" stop-opacity="0.72"/>
<stop offset="0.625"/>
<stop offset="0.802083" stop-color="white" stop-opacity="0.72"/>
<stop offset="1"/>
</radialGradient>
<radialGradient id="paint64_angular_27_160" cx="0" cy="0" r="1" gradientUnits="userSpaceOnUse" gradientTransform="translate(423 180) rotate(89.89) scale(167.801 235.701)">
<stop offset="0.0833333" stop-color="white"/>
<stop offset="0.265625"/>
<stop offset="0.46875" stop-color="white"/>
<stop offset="0.635417"/>
<stop offset="0.791667" stop-color="white"/>
<stop offset="1"/>
</radialGradient>
<radialGradient id="paint65_angular_27_160" cx="0" cy="0" r="1" gradientUnits="userSpaceOnUse" gradientTransform="translate(423 180) rotate(89.89) scale(167.801 235.701)">
<stop offset="0.046875" stop-color="white" stop-opacity="0.72"/>
<stop offset="0.244792"/>
<stop offset="0.421875" stop-color="white" stop-opacity="0.72"/>
<stop offset="0.625"/>
<stop offset="0.802083" stop-color="white" stop-opacity="0.72"/>
<stop offset="1"/>
</radialGradient>
<radialGradient id="paint66_angular_27_160" cx="0" cy="0" r="1" gradientUnits="userSpaceOnUse" gradientTransform="translate(423 180) rotate(89.89) scale(167.801 235.701)">
<stop offset="0.0833333" stop-color="white"/>
<stop offset="0.265625"/>
<stop offset="0.46875" stop-color="white"/>
<stop offset="0.635417"/>
<stop offset="0.791667" stop-color="white"/>
<stop offset="1"/>
</radialGradient>
<radialGradient id="paint67_angular_27_160" cx="0" cy="0" r="1" gradientUnits="userSpaceOnUse" gradientTransform="translate(423 180) rotate(89.89) scale(167.801 235.701)">
<stop offset="0.046875" stop-color="white" stop-opacity="0.72"/>
<stop offset="0.244792"/>
<stop offset="0.421875" stop-color="white" stop-opacity="0.72"/>
<stop offset="0.625"/>
<stop offset="0.802083" stop-color="white" stop-opacity="0.72"/>
<stop offset="1"/>
</radialGradient>
<radialGradient id="paint68_angular_27_160" cx="0" cy="0" r="1" gradientUnits="userSpaceOnUse" gradientTransform="translate(423 180) rotate(89.89) scale(167.801 235.701)">
<stop offset="0.0833333" stop-color="white"/>
<stop offset="0.265625"/>
<stop offset="0.46875" stop-color="white"/>
<stop offset="0.635417"/>
<stop offset="0.791667" stop-color="white"/>
<stop offset="1"/>
</radialGradient>
<radialGradient id="paint69_angular_27_160" cx="0" cy="0" r="1" gradientUnits="userSpaceOnUse" gradientTransform="translate(423 180) rotate(89.89) scale(167.801 235.701)">
<stop offset="0.046875" stop-color="white" stop-opacity="0.72"/>
<stop offset="0.244792"/>
<stop offset="0.421875" stop-color="white" stop-opacity="0.72"/>
<stop offset="0.625"/>
<stop offset="0.802083" stop-color="white" stop-opacity="0.72"/>
<stop offset="1"/>
</radialGradient>
<radialGradient id="paint70_angular_27_160" cx="0" cy="0" r="1" gradientUnits="userSpaceOnUse" gradientTransform="translate(423 180) rotate(89.89) scale(167.801 235.701)">
<stop offset="0.0833333" stop-color="white"/>
<stop offset="0.265625"/>
<stop offset="0.46875" stop-color="white"/>
<stop offset="0.635417"/>
<stop offset="0.791667" stop-color="white"/>
<stop offset="1"/>
</radialGradient>
<radialGradient id="paint71_angular_27_160" cx="0" cy="0" r="1" gradientUnits="userSpaceOnUse" gradientTransform="translate(423 180) rotate(89.89) scale(167.801 235.701)">
<stop offset="0.046875" stop-color="white" stop-opacity="0.72"/>
<stop offset="0.244792"/>
<stop offset="0.421875" stop-color="white" stop-opacity="0.72"/>
<stop offset="0.625"/>
<stop offset="0.802083" stop-color="white" stop-opacity="0.72"/>
<stop offset="1"/>
</radialGradient>
<radialGradient id="paint72_angular_27_160" cx="0" cy="0" r="1" gradientUnits="userSpaceOnUse" gradientTransform="translate(423 180) rotate(89.89) scale(167.801 235.701)">
<stop offset="0.0833333" stop-color="white"/>
<stop offset="0.265625"/>
<stop offset="0.46875" stop-color="white"/>
<stop offset="0.635417"/>
<stop offset="0.791667" stop-color="white"/>
<stop offset="1"/>
</radialGradient>
<radialGradient id="paint73_angular_27_160" cx="0" cy="0" r="1" gradientUnits="userSpaceOnUse" gradientTransform="translate(423 180) rotate(89.89) scale(167.801 235.701)">
<stop offset="0.046875" stop-color="white" stop-opacity="0.72"/>
<stop offset="0.244792"/>
<stop offset="0.421875" stop-color="white" stop-opacity="0.72"/>
<stop offset="0.625"/>
<stop offset="0.802083" stop-color="white" stop-opacity="0.72"/>
<stop offset="1"/>
</radialGradient>
<radialGradient id="paint74_angular_27_160" cx="0" cy="0" r="1" gradientUnits="userSpaceOnUse" gradientTransform="translate(423 180) rotate(89.89) scale(167.801 235.701)">
<stop offset="0.0833333" stop-color="white"/>
<stop offset="0.265625"/>
<stop offset="0.46875" stop-color="white"/>
<stop offset="0.635417"/>
<stop offset="0.791667" stop-color="white"/>
<stop offset="1"/>
</radialGradient>
<radialGradient id="paint75_angular_27_160" cx="0" cy="0" r="1" gradientUnits="userSpaceOnUse" gradientTransform="translate(423 180) rotate(89.89) scale(167.801 235.701)">
<stop offset="0.046875" stop-color="white" stop-opacity="0.72"/>
<stop offset="0.244792"/>
<stop offset="0.421875" stop-color="white" stop-opacity="0.72"/>
<stop offset="0.625"/>
<stop offset="0.802083" stop-color="white" stop-opacity="0.72"/>
<stop offset="1"/>
</radialGradient>
<radialGradient id="paint76_angular_27_160" cx="0" cy="0" r="1" gradientUnits="userSpaceOnUse" gradientTransform="translate(423 180) rotate(89.89) scale(167.801 235.701)">
<stop offset="0.0833333" stop-color="white"/>
<stop offset="0.265625"/>
<stop offset="0.46875" stop-color="white"/>
<stop offset="0.635417"/>
<stop offset="0.791667" stop-color="white"/>
<stop offset="1"/>
</radialGradient>
<radialGradient id="paint77_angular_27_160" cx="0" cy="0" r="1" gradientUnits="userSpaceOnUse" gradientTransform="translate(423 180) rotate(89.89) scale(167.801 235.701)">
<stop offset="0.046875" stop-color="white" stop-opacity="0.72"/>
<stop offset="0.244792"/>
<stop offset="0.421875" stop-color="white" stop-opacity="0.72"/>
<stop offset="0.625"/>
<stop offset="0.802083" stop-color="white" stop-opacity="0.72"/>
<stop offset="1"/>
</radialGradient>
<radialGradient id="paint78_angular_27_160" cx="0" cy="0" r="1" gradientUnits="userSpaceOnUse" gradientTransform="translate(423 180) rotate(89.89) scale(167.801 235.701)">
<stop offset="0.0833333" stop-color="white"/>
<stop offset="0.265625"/>
<stop offset="0.46875" stop-color="white"/>
<stop offset="0.635417"/>
<stop offset="0.791667" stop-color="white"/>
<stop offset="1"/>
</radialGradient>
<radialGradient id="paint79_angular_27_160" cx="0" cy="0" r="1" gradientUnits="userSpaceOnUse" gradientTransform="translate(423 180) rotate(89.89) scale(167.801 235.701)">
<stop offset="0.046875" stop-color="white" stop-opacity="0.72"/>
<stop offset="0.244792"/>
<stop offset="0.421875" stop-color="white" stop-opacity="0.72"/>
<stop offset="0.625"/>
<stop offset="0.802083" stop-color="white" stop-opacity="0.72"/>
<stop offset="1"/>
</radialGradient>
<radialGradient id="paint80_angular_27_160" cx="0" cy="0" r="1" gradientUnits="userSpaceOnUse" gradientTransform="translate(423 180) rotate(89.89) scale(167.801 235.701)">
<stop offset="0.0833333" stop-color="white"/>
<stop offset="0.265625"/>
<stop offset="0.46875" stop-color="white"/>
<stop offset="0.635417"/>
<stop offset="0.791667" stop-color="white"/>
<stop offset="1"/>
</radialGradient>
<radialGradient id="paint81_angular_27_160" cx="0" cy="0" r="1" gradientUnits="userSpaceOnUse" gradientTransform="translate(423 180) rotate(89.89) scale(167.801 235.701)">
<stop offset="0.046875" stop-color="white" stop-opacity="0.72"/>
<stop offset="0.244792"/>
<stop offset="0.421875" stop-color="white" stop-opacity="0.72"/>
<stop offset="0.625"/>
<stop offset="0.802083" stop-color="white" stop-opacity="0.72"/>
<stop offset="1"/>
</radialGradient>
<radialGradient id="paint82_angular_27_160" cx="0" cy="0" r="1" gradientUnits="userSpaceOnUse" gradientTransform="translate(423 180) rotate(89.89) scale(167.801 235.701)">
<stop offset="0.0833333" stop-color="white"/>
<stop offset="0.265625"/>
<stop offset="0.46875" stop-color="white"/>
<stop offset="0.635417"/>
<stop offset="0.791667" stop-color="white"/>
<stop offset="1"/>
</radialGradient>
<radialGradient id="paint83_angular_27_160" cx="0" cy="0" r="1" gradientUnits="userSpaceOnUse" gradientTransform="translate(423 180) rotate(89.89) scale(167.801 235.701)">
<stop offset="0.046875" stop-color="white" stop-opacity="0.72"/>
<stop offset="0.244792"/>
<stop offset="0.421875" stop-color="white" stop-opacity="0.72"/>
<stop offset="0.625"/>
<stop offset="0.802083" stop-color="white" stop-opacity="0.72"/>
<stop offset="1"/>
</radialGradient>
<radialGradient id="paint84_angular_27_160" cx="0" cy="0" r="1" gradientUnits="userSpaceOnUse" gradientTransform="translate(423 180) rotate(89.89) scale(167.801 235.701)">
<stop offset="0.0833333" stop-color="white"/>
<stop offset="0.265625"/>
<stop offset="0.46875" stop-color="white"/>
<stop offset="0.635417"/>
<stop offset="0.791667" stop-color="white"/>
<stop offset="1"/>
</radialGradient>
<radialGradient id="paint85_angular_27_160" cx="0" cy="0" r="1" gradientUnits="userSpaceOnUse" gradientTransform="translate(423 180) rotate(89.89) scale(167.801 235.701)">
<stop offset="0.046875" stop-color="white" stop-opacity="0.72"/>
<stop offset="0.244792"/>
<stop offset="0.421875" stop-color="white" stop-opacity="0.72"/>
<stop offset="0.625"/>
<stop offset="0.802083" stop-color="white" stop-opacity="0.72"/>
<stop offset="1"/>
</radialGradient>
<radialGradient id="paint86_angular_27_160" cx="0" cy="0" r="1" gradientUnits="userSpaceOnUse" gradientTransform="translate(423 180) rotate(89.89) scale(167.801 235.701)">
<stop offset="0.0833333" stop-color="white"/>
<stop offset="0.265625"/>
<stop offset="0.46875" stop-color="white"/>
<stop offset="0.635417"/>
<stop offset="0.791667" stop-color="white"/>
<stop offset="1"/>
</radialGradient>
<radialGradient id="paint87_angular_27_160" cx="0" cy="0" r="1" gradientUnits="userSpaceOnUse" gradientTransform="translate(423 180) rotate(89.89) scale(167.801 235.701)">
<stop offset="0.046875" stop-color="white" stop-opacity="0.72"/>
<stop offset="0.244792"/>
<stop offset="0.421875" stop-color="white" stop-opacity="0.72"/>
<stop offset="0.625"/>
<stop offset="0.802083" stop-color="white" stop-opacity="0.72"/>
<stop offset="1"/>
</radialGradient>
<radialGradient id="paint88_angular_27_160" cx="0" cy="0" r="1" gradientUnits="userSpaceOnUse" gradientTransform="translate(423 180) rotate(89.89) scale(167.801 235.701)">
<stop offset="0.0833333" stop-color="white"/>
<stop offset="0.265625"/>
<stop offset="0.46875" stop-color="white"/>
<stop offset="0.635417"/>
<stop offset="0.791667" stop-color="white"/>
<stop offset="1"/>
</radialGradient>
<radialGradient id="paint89_angular_27_160" cx="0" cy="0" r="1" gradientUnits="userSpaceOnUse" gradientTransform="translate(423 180) rotate(89.89) scale(167.801 235.701)">
<stop offset="0.046875" stop-color="white" stop-opacity="0.72"/>
<stop offset="0.244792"/>
<stop offset="0.421875" stop-color="white" stop-opacity="0.72"/>
<stop offset="0.625"/>
<stop offset="0.802083" stop-color="white" stop-opacity="0.72"/>
<stop offset="1"/>
</radialGradient>
<radialGradient id="paint90_angular_27_160" cx="0" cy="0" r="1" gradientUnits="userSpaceOnUse" gradientTransform="translate(423 180) rotate(89.89) scale(167.801 235.701)">
<stop offset="0.0833333" stop-color="white"/>
<stop offset="0.265625"/>
<stop offset="0.46875" stop-color="white"/>
<stop offset="0.635417"/>
<stop offset="0.791667" stop-color="white"/>
<stop offset="1"/>
</radialGradient>
<radialGradient id="paint91_angular_27_160" cx="0" cy="0" r="1" gradientUnits="userSpaceOnUse" gradientTransform="translate(423 180) rotate(89.89) scale(167.801 235.701)">
<stop offset="0.046875" stop-color="white" stop-opacity="0.72"/>
<stop offset="0.244792"/>
<stop offset="0.421875" stop-color="white" stop-opacity="0.72"/>
<stop offset="0.625"/>
<stop offset="0.802083" stop-color="white" stop-opacity="0.72"/>
<stop offset="1"/>
</radialGradient>
<radialGradient id="paint92_angular_27_160" cx="0" cy="0" r="1" gradientUnits="userSpaceOnUse" gradientTransform="translate(423 180) rotate(89.89) scale(167.801 235.701)">
<stop offset="0.0833333" stop-color="white"/>
<stop offset="0.265625"/>
<stop offset="0.46875" stop-color="white"/>
<stop offset="0.635417"/>
<stop offset="0.791667" stop-color="white"/>
<stop offset="1"/>
</radialGradient>
<radialGradient id="paint93_angular_27_160" cx="0" cy="0" r="1" gradientUnits="userSpaceOnUse" gradientTransform="translate(423 180) rotate(89.89) scale(167.801 235.701)">
<stop offset="0.046875" stop-color="white" stop-opacity="0.72"/>
<stop offset="0.244792"/>
<stop offset="0.421875" stop-color="white" stop-opacity="0.72"/>
<stop offset="0.625"/>
<stop offset="0.802083" stop-color="white" stop-opacity="0.72"/>
<stop offset="1"/>
</radialGradient>
<linearGradient id="paint94_linear_27_160" x1="154" y1="366.5" x2="154" y2="333" gradientUnits="userSpaceOnUse">
<stop stop-color="#7E1219"/>
<stop offset="1" stop-color="#F9DF40"/>
</linearGradient>
<linearGradient id="paint95_linear_27_160" x1="693" y1="484" x2="693" y2="445" gradientUnits="userSpaceOnUse">
<stop stop-color="#7E1219"/>
<stop offset="1" stop-color="#F9DF40"/>
</linearGradient>
<linearGradient id="paint96_linear_27_160" x1="355" y1="484" x2="496" y2="471" gradientUnits="userSpaceOnUse">
<stop stop-color="#7E1219"/>
<stop offset="1" stop-color="#F9DF40"/>
</linearGradient>
</defs>
</svg>
